<svg viewBox="0 0 397 167" fill="none" xmlns="http://www.w3.org/2000/svg"><path d="M120.654 88.287c-.827 0-1.55-.294-2.174-.87-.624-.581-.932-1.325-.932-2.237V71.126H78.884a3.07 3.07 0 0 1-2.174-.87c-.624-.581-.932-1.325-.932-2.237V56.203c0-.744.14-1.424.435-2.048.287-.624.603-1.227.932-1.803L113.32 3.36c1.079-1.41 2.615-2.11 4.599-2.11h18.028c.911 0 1.683.287 2.3.869.624.582.932 1.325.932 2.237v48.243h10.939c.996 0 1.788.315 2.363.933.582.624.869 1.346.869 2.174v12.314c0 .912-.308 1.656-.925 2.238-.624.582-1.353.87-2.181.87h-11.065V85.18c0 .912-.308 1.656-.932 2.238-.617.575-1.389.87-2.3.87h-15.293Zm-23.497-34.82h20.889V24.126L97.157 53.468Z" fill="url(#a)"/><path d="M199.23 89.529c-5.968 0-11.149-.849-15.539-2.546-4.396-1.704-8.021-4.047-10.882-7.027-2.861-2.988-5.035-6.466-6.528-10.45-1.487-3.976-2.356-8.247-2.609-12.806a338.196 338.196 0 0 1-.189-7.644 360.69 360.69 0 0 1 0-8.703c.042-2.945.105-5.575.189-7.897.253-4.558 1.143-8.808 2.672-12.742 1.535-3.942 3.772-7.378 6.717-10.324 2.938-2.945 6.584-5.245 10.939-6.9C188.354.835 193.424 0 199.23 0c5.882 0 10.98.835 15.292 2.49 4.306 1.655 7.938 3.955 10.876 6.9 2.945 2.946 5.203 6.382 6.773 10.324 1.578 3.934 2.448 8.184 2.616 12.742.161 2.322.266 4.952.308 7.897a300.58 300.58 0 0 1 0 8.703 134.98 134.98 0 0 1-.308 7.645c-.168 4.558-1.017 8.829-2.553 12.805-1.528 3.984-3.73 7.462-6.584 10.45-2.861 2.98-6.465 5.323-10.819 7.027-4.354 1.697-9.55 2.546-15.601 2.546Zm0-18.03c4.312 0 7.439-1.39 9.388-4.167 1.943-2.777 2.959-6.529 3.044-11.249.168-2.405.266-4.937.308-7.588.042-2.65.042-5.302 0-7.96-.042-2.65-.14-5.098-.308-7.335-.085-4.559-1.101-8.248-3.044-11.067-1.949-2.82-5.076-4.264-9.388-4.348-4.313.084-7.419 1.529-9.326 4.348-1.908 2.82-2.938 6.508-3.107 11.067a340.353 340.353 0 0 0-.189 7.335 251.444 251.444 0 0 0 0 7.96c.042 2.651.105 5.183.189 7.588.169 4.72 1.242 8.472 3.233 11.25 1.991 2.776 5.055 4.165 9.2 4.165Z" fill="url(#b)"/><path d="M289.984 88.287c-.827 0-1.556-.294-2.173-.87-.624-.581-.933-1.325-.933-2.237V71.126h-38.663c-.835 0-1.557-.287-2.181-.87-.617-.581-.933-1.325-.933-2.237V56.203c0-.744.148-1.424.435-2.048.295-.624.603-1.227.933-1.803L282.65 3.36c1.08-1.41 2.609-2.11 4.6-2.11h18.027c.912 0 1.676.287 2.3.869.617.582.933 1.325.933 2.237v48.243h10.938c.996 0 1.781.315 2.363.933.582.624.87 1.346.87 2.174v12.314c0 .912-.309 1.656-.933 2.238-.624.582-1.346.87-2.173.87H308.51V85.18c0 .912-.316 1.656-.933 2.238-.624.575-1.388.87-2.3.87h-15.293Zm-23.496-34.82h20.888V24.126l-20.888 29.343Z" fill="url(#c)"/><path d="M74.677 159.063a1.84 1.84 0 0 1-1.353-.561 1.844 1.844 0 0 1-.561-1.354v-51.875c0-.582.19-1.059.56-1.431.372-.371.821-.561 1.354-.561h35.052c.582 0 1.059.19 1.431.561.371.372.561.849.561 1.431v5.26c0 .533-.19.982-.561 1.36-.372.372-.849.554-1.431.554h-26.21v14.104h24.457c.582 0 1.059.175 1.438.519.372.343.554.806.554 1.395v4.937c0 .582-.182 1.052-.554 1.396-.379.344-.856.519-1.438.519H83.519v14.58h26.848c.582 0 1.059.182 1.431.554.372.372.561.856.561 1.438v5.259c0 .533-.189.982-.561 1.354-.372.372-.849.561-1.431.561h-35.69Z" fill="url(#d)"/><path d="M124.23 159.063c-.533 0-.982-.189-1.353-.561a1.843 1.843 0 0 1-.561-1.354v-51.875c0-.582.189-1.059.561-1.431.371-.371.82-.561 1.353-.561h20.629c6.43 0 11.5 1.494 15.216 4.468 3.723 2.973 5.581 7.3 5.581 12.988 0 3.927-.967 7.195-2.91 9.797-1.935 2.602-4.529 4.488-7.769 5.659l11.633 20.317c.161.316.238.61.238.877 0 .477-.168.877-.518 1.192-.344.323-.73.484-1.15.484h-7.251c-.904 0-1.598-.245-2.075-.722-.477-.477-.849-.954-1.115-1.431l-10.273-18.886h-11.078v19.124c0 .533-.169.982-.512 1.354-.351.372-.814.561-1.396.561h-7.25Zm9.158-30.044h11.233c3.239 0 5.658-.729 7.25-2.188 1.592-1.466 2.391-3.52 2.391-6.178 0-2.651-.785-4.741-2.349-6.256-1.571-1.508-3.997-2.265-7.292-2.265h-11.233v16.887Z" fill="url(#e)"/><path d="M177.843 159.063c-.533 0-.982-.189-1.353-.561a1.843 1.843 0 0 1-.561-1.354v-51.875c0-.582.189-1.059.561-1.431.371-.371.82-.561 1.353-.561h20.636c6.423 0 11.5 1.494 15.216 4.468 3.716 2.973 5.574 7.3 5.574 12.988 0 3.927-.967 7.195-2.91 9.797-1.935 2.602-4.522 4.488-7.762 5.659l11.626 20.317c.161.316.238.61.238.877 0 .477-.168.877-.512 1.192-.35.323-.736.484-1.157.484h-7.25c-.904 0-1.592-.245-2.068-.722-.484-.477-.856-.954-1.122-1.431l-10.273-18.886h-11.072v19.124c0 .533-.175.982-.518 1.354-.344.372-.814.561-1.396.561h-7.25Zm9.164-30.044h11.234c3.239 0 5.651-.729 7.25-2.188 1.592-1.466 2.384-3.52 2.384-6.178 0-2.651-.778-4.741-2.349-6.256-1.564-1.508-3.997-2.265-7.285-2.265h-11.234v16.887Z" fill="url(#f)"/><path d="M250.816 159.856c-4.726 0-8.786-.786-12.187-2.35s-6.058-3.983-7.966-7.251c-1.914-3.268-2.952-7.343-3.106-12.231a276.333 276.333 0 0 1 0-13.626c.154-4.832 1.22-8.872 3.184-12.112 1.963-3.24 4.662-5.681 8.084-7.329 3.429-1.648 7.426-2.468 11.991-2.468 4.571 0 8.575.82 12.032 2.468 3.45 1.648 6.156 4.089 8.127 7.329 1.963 3.24 3.022 7.28 3.183 12.112.105 2.342.161 4.621.161 6.851 0 2.23-.056 4.489-.161 6.775-.161 4.888-1.192 8.963-3.106 12.231-1.914 3.268-4.579 5.687-8.008 7.251-3.421 1.564-7.502 2.35-12.228 2.35Zm0-9.159c3.456 0 6.268-1.024 8.449-3.072 2.174-2.041 3.345-5.379 3.499-10.001.112-2.335.161-4.502.161-6.494s-.049-4.131-.161-6.41c-.105-3.086-.673-5.596-1.711-7.532-1.038-1.935-2.426-3.345-4.179-4.222-1.753-.876-3.773-1.318-6.058-1.318-2.23 0-4.222.442-5.975 1.318-1.753.877-3.148 2.287-4.179 4.222-1.037 1.936-1.612 4.446-1.718 7.532a300.399 300.399 0 0 0-.077 6.41c0 1.992.028 4.159.077 6.494.162 4.622 1.333 7.96 3.506 10.001 2.181 2.048 4.965 3.072 8.366 3.072Z" fill="url(#g)"/><path d="M286.667 159.063c-.532 0-.981-.189-1.353-.561a1.846 1.846 0 0 1-.561-1.354v-51.875c0-.582.19-1.059.561-1.431a1.846 1.846 0 0 1 1.353-.561h20.636c6.423 0 11.493 1.494 15.216 4.468 3.717 2.973 5.575 7.3 5.575 12.988 0 3.927-.968 7.195-2.91 9.797-1.936 2.602-4.523 4.488-7.769 5.659l11.632 20.317c.162.316.239.61.239.877 0 .477-.169.877-.519 1.192-.344.323-.729.484-1.15.484h-7.25c-.905 0-1.592-.245-2.076-.722a6.635 6.635 0 0 1-1.115-1.431l-10.272-18.886h-11.079v19.124c0 .533-.168.982-.512 1.354-.35.372-.813.561-1.395.561h-7.251Zm9.158-30.044h11.233c3.24 0 5.659-.729 7.25-2.188 1.599-1.466 2.391-3.52 2.391-6.178 0-2.651-.785-4.741-2.349-6.256-1.563-1.508-3.996-2.265-7.292-2.265h-11.233v16.887Z" fill="url(#h)"/><path d="m351.457 166.981 45.43-84.213h-27.676l20.987-80.005-52.344 97.79h29.513l-15.91 66.428Zm-306.027 0L0 82.768H27.67L6.689 2.763l52.344 97.79H29.52l15.91 66.428Z" fill="#FFDB15"/><defs><linearGradient id="a" x1="139.947" y1="75.068" x2="95.941" y2="33.179" gradientUnits="userSpaceOnUse"><stop stop-color="#0061FF"/><stop offset="1" stop-color="#00E0FF"/></linearGradient><linearGradient id="b" x1="222.744" y1="75.931" x2="177.974" y2="37.653" gradientUnits="userSpaceOnUse"><stop stop-color="#0061FF"/><stop offset="1" stop-color="#00E0FF"/></linearGradient><linearGradient id="c" x1="309.277" y1="75.068" x2="265.27" y2="33.175" gradientUnits="userSpaceOnUse"><stop stop-color="#0061FF"/><stop offset="1" stop-color="#00E0FF"/></linearGradient><linearGradient id="d" x1="105.152" y1="151.087" x2="78.333" y2="129.288" gradientUnits="userSpaceOnUse"><stop stop-color="#0061FF"/><stop offset="1" stop-color="#00E0FF"/></linearGradient><linearGradient id="e" x1="158.744" y1="151.087" x2="131.456" y2="126.143" gradientUnits="userSpaceOnUse"><stop stop-color="#0061FF"/><stop offset="1" stop-color="#00E0FF"/></linearGradient><linearGradient id="f" x1="212.356" y1="151.087" x2="185.069" y2="126.143" gradientUnits="userSpaceOnUse"><stop stop-color="#0061FF"/><stop offset="1" stop-color="#00E0FF"/></linearGradient><linearGradient id="g" x1="265.793" y1="151.653" x2="237.681" y2="125.366" gradientUnits="userSpaceOnUse"><stop stop-color="#0061FF"/><stop offset="1" stop-color="#00E0FF"/></linearGradient><linearGradient id="h" x1="321.181" y1="151.087" x2="293.893" y2="126.143" gradientUnits="userSpaceOnUse"><stop stop-color="#0061FF"/><stop offset="1" stop-color="#00E0FF"/></linearGradient></defs></svg>