<svg width="151" height="46" fill="none" xmlns="http://www.w3.org/2000/svg"><path fill-rule="evenodd" clip-rule="evenodd" d="M26.214 2.95C35.291 5.268 42 13.499 42 23.298c0 9.798-6.709 18.03-15.786 20.347V40.99c7.644-2.25 13.226-9.318 13.226-17.691S33.858 7.856 26.214 5.609V2.95ZM15.786 43.645C6.709 41.327 0 33.096 0 23.298c0-9.8 6.71-18.03 15.786-20.348v2.66C8.142 7.855 2.56 14.924 2.56 23.297s5.582 15.44 13.226 17.691v2.656Z" fill="url(#a)"/><path transform="rotate(-23 8.46 21.925)" fill="url(#b)" d="M8.46 21.925h22.68v1.89H8.46z"/><path transform="rotate(48 20.827 2.987)" fill="url(#c)" d="M20.827 2.987h14.354v1.89H20.827z"/><path transform="rotate(56 9.127 22.48)" fill="url(#d)" d="M9.127 22.48h22.68v1.89H9.127z"/><path transform="rotate(-51 21 41.468)" fill="url(#e)" d="M21 41.468h12.183v1.89H21z"/><circle cx="29.4" cy="13.87" r="3.57" fill="url(#f)"/><circle cx="29.4" cy="32.14" r="3.57" fill="url(#g)"/><circle cx="8.61" cy="22.9" r="3.57" fill="url(#h)"/><circle cx="21" cy="42.43" r="3.57" fill="url(#i)"/><circle cx="21" cy="4.21" r="3.57" fill="url(#j)"/><path fill="#12284C" d="M57.524 20.18c-.96 0-1.854-.156-2.682-.468a6.697 6.697 0 0 1-2.142-1.35 6.325 6.325 0 0 1-1.404-2.07 6.569 6.569 0 0 1-.504-2.592c0-.936.168-1.8.504-2.592a6.003 6.003 0 0 1 1.422-2.052 6.307 6.307 0 0 1 2.142-1.35c.816-.324 1.71-.486 2.682-.486 1.032 0 1.974.18 2.826.54.852.348 1.572.87 2.16 1.566l-1.512 1.422a4.464 4.464 0 0 0-1.53-1.098 4.449 4.449 0 0 0-1.836-.378c-.66 0-1.266.108-1.818.324a4.327 4.327 0 0 0-1.422.918 4.361 4.361 0 0 0-.936 1.404 4.757 4.757 0 0 0-.324 1.782c0 .648.108 1.242.324 1.782.228.54.54 1.008.936 1.404.408.396.882.702 1.422.918a4.948 4.948 0 0 0 1.818.324c.66 0 1.272-.12 1.836-.36a4.58 4.58 0 0 0 1.53-1.134l1.512 1.44a5.764 5.764 0 0 1-2.16 1.566c-.852.36-1.8.54-2.844.54ZM69.63 20V7.4h5.184c1.116 0 2.07.18 2.862.54.804.36 1.422.876 1.854 1.548.432.672.648 1.47.648 2.394 0 .924-.216 1.722-.648 2.394-.432.66-1.05 1.17-1.854 1.53-.792.348-1.746.522-2.862.522h-3.888l1.044-1.062V20h-2.34Zm8.244 0-3.186-4.572h2.502L80.394 20h-2.52Zm-5.904-4.482-1.044-1.116h3.78c1.032 0 1.806-.222 2.322-.666.528-.444.792-1.062.792-1.854 0-.804-.264-1.422-.792-1.854-.516-.432-1.29-.648-2.322-.648h-3.78l1.044-1.152v7.29ZM90.576 20v-4.986l.522 1.44L85.626 7.4h2.502l4.392 7.29h-1.404l4.428-7.29h2.304l-5.472 9.054.54-1.44V20h-2.34Zm13.507 0V7.4h5.184c1.116 0 2.07.18 2.862.54.804.36 1.422.876 1.854 1.548.432.672.648 1.47.648 2.394 0 .924-.216 1.722-.648 2.394-.432.672-1.05 1.188-1.854 1.548-.792.36-1.746.54-2.862.54h-3.888l1.044-1.098V20h-2.34Zm2.34-4.482-1.044-1.134h3.78c1.032 0 1.806-.216 2.322-.648.528-.444.792-1.062.792-1.854 0-.804-.264-1.422-.792-1.854-.516-.432-1.29-.648-2.322-.648h-3.78l1.044-1.152v7.29ZM124.014 20V9.38h-4.176V7.4h10.692v1.98h-4.176V20h-2.34Zm18.861.18c-.984 0-1.89-.162-2.718-.486a6.65 6.65 0 0 1-2.16-1.35 6.242 6.242 0 0 1-1.422-2.052 6.569 6.569 0 0 1-.504-2.592c0-.936.168-1.794.504-2.574a6.003 6.003 0 0 1 1.422-2.052 6.498 6.498 0 0 1 2.16-1.368 7.345 7.345 0 0 1 2.7-.486c.984 0 1.884.162 2.7.486.828.324 1.548.78 2.16 1.368a6.003 6.003 0 0 1 1.422 2.052c.336.78.504 1.638.504 2.574 0 .936-.168 1.8-.504 2.592a6.003 6.003 0 0 1-1.422 2.052 6.65 6.65 0 0 1-2.16 1.35c-.816.324-1.71.486-2.682.486Zm-.018-2.052c.636 0 1.224-.108 1.764-.324a4.13 4.13 0 0 0 1.404-.918c.396-.408.702-.876.918-1.404.228-.54.342-1.134.342-1.782 0-.648-.114-1.236-.342-1.764a4.13 4.13 0 0 0-.918-1.404 4.005 4.005 0 0 0-1.404-.936 4.707 4.707 0 0 0-1.764-.324c-.636 0-1.224.108-1.764.324a4.236 4.236 0 0 0-1.404.936 4.361 4.361 0 0 0-.936 1.404 4.619 4.619 0 0 0-.324 1.764c0 .636.108 1.224.324 1.764.228.54.54 1.014.936 1.422a4.13 4.13 0 0 0 1.404.918c.54.216 1.128.324 1.764.324ZM55.598 39.18a9.585 9.585 0 0 1-2.826-.414c-.9-.288-1.614-.654-2.142-1.098l.81-1.818c.504.396 1.128.726 1.872.99a6.788 6.788 0 0 0 2.286.396c.66 0 1.194-.072 1.602-.216.408-.144.708-.336.9-.576.192-.252.288-.534.288-.846 0-.384-.138-.69-.414-.918-.276-.24-.636-.426-1.08-.558a14.758 14.758 0 0 0-1.458-.396 28.654 28.654 0 0 1-1.602-.414 7.632 7.632 0 0 1-1.458-.63 3.269 3.269 0 0 1-1.062-1.044c-.276-.432-.414-.984-.414-1.656 0-.684.18-1.308.54-1.872.372-.576.93-1.032 1.674-1.368.756-.348 1.71-.522 2.862-.522a8.97 8.97 0 0 1 2.25.288c.744.192 1.392.468 1.944.828l-.738 1.818a6.693 6.693 0 0 0-1.746-.738 6.404 6.404 0 0 0-1.728-.252c-.648 0-1.176.078-1.584.234-.396.156-.69.36-.882.612-.18.252-.27.54-.27.864 0 .384.132.696.396.936.276.228.63.408 1.062.54.444.132.936.264 1.476.396.54.12 1.074.258 1.602.414.54.156 1.026.36 1.458.612.444.252.798.594 1.062 1.026.276.432.414.978.414 1.638 0 .672-.186 1.296-.558 1.872-.36.564-.918 1.02-1.674 1.368-.756.336-1.71.504-2.862.504ZM70.705 39v-4.986l.522 1.44-5.472-9.054h2.502l4.392 7.29h-1.404l4.428-7.29h2.304l-5.472 9.054.54-1.44V39h-2.34Zm17.306.18a9.585 9.585 0 0 1-2.826-.414c-.9-.288-1.614-.654-2.142-1.098l.81-1.818c.504.396 1.128.726 1.872.99a6.788 6.788 0 0 0 2.286.396c.66 0 1.194-.072 1.602-.216.408-.144.708-.336.9-.576.192-.252.288-.534.288-.846 0-.384-.138-.69-.414-.918-.276-.24-.636-.426-1.08-.558a14.758 14.758 0 0 0-1.458-.396 28.654 28.654 0 0 1-1.602-.414 7.632 7.632 0 0 1-1.458-.63 3.269 3.269 0 0 1-1.062-1.044c-.276-.432-.414-.984-.414-1.656 0-.684.18-1.308.54-1.872.372-.576.93-1.032 1.674-1.368.756-.348 1.71-.522 2.862-.522a8.97 8.97 0 0 1 2.25.288c.744.192 1.392.468 1.944.828l-.738 1.818a6.693 6.693 0 0 0-1.746-.738 6.404 6.404 0 0 0-1.728-.252c-.648 0-1.176.078-1.584.234-.396.156-.69.36-.882.612-.18.252-.27.54-.27.864 0 .384.132.696.396.936.276.228.63.408 1.062.54.444.132.936.264 1.476.396.54.12 1.074.258 1.602.414.54.156 1.026.36 1.458.612.444.252.798.594 1.062 1.026.276.432.414.978.414 1.638 0 .672-.186 1.296-.558 1.872-.36.564-.918 1.02-1.674 1.368-.756.336-1.71.504-2.862.504Zm14.655-.18V28.38H98.49V26.4h10.692v1.98h-4.176V39h-2.34Zm15.292-7.362h6.264v1.926h-6.264v-1.926Zm.18 5.4h7.11V39h-9.45V26.4h9.198v1.962h-6.858v8.676ZM132.717 39V26.4h1.926l5.508 9.198h-1.008l5.418-9.198h1.926l.018 12.6h-2.214l-.018-9.126h.468l-4.608 7.686h-1.044l-4.68-7.686h.54V39h-2.232Z" /><defs><linearGradient id="a" x1="32.344" y1="56.758" x2="-20.476" y2="50.26" gradientUnits="userSpaceOnUse"><stop stop-color="#00E0FF"/><stop offset="1" stop-color="#0061FF"/></linearGradient><linearGradient id="b" x1="25.926" y1="24.424" x2="16.421" y2="10.828" gradientUnits="userSpaceOnUse"><stop stop-color="#00E0FF"/><stop offset="1" stop-color="#0061FF"/></linearGradient><linearGradient id="c" x1="31.881" y1="5.486" x2="21.811" y2="-3.631" gradientUnits="userSpaceOnUse"><stop stop-color="#00E0FF"/><stop offset="1" stop-color="#0061FF"/></linearGradient><linearGradient id="d" x1="26.593" y1="24.979" x2="17.088" y2="11.383" gradientUnits="userSpaceOnUse"><stop stop-color="#00E0FF"/><stop offset="1" stop-color="#0061FF"/></linearGradient><linearGradient id="e" x1="30.382" y1="43.967" x2="20.603" y2="36.453" gradientUnits="userSpaceOnUse"><stop stop-color="#00E0FF"/><stop offset="1" stop-color="#0061FF"/></linearGradient><linearGradient id="f" x1="31.328" y1="19.741" x2="22.341" y2="18.669" gradientUnits="userSpaceOnUse"><stop stop-color="#00E0FF"/><stop offset="1" stop-color="#0061FF"/></linearGradient><linearGradient id="g" x1="31.328" y1="38.011" x2="22.341" y2="36.939" gradientUnits="userSpaceOnUse"><stop stop-color="#00E0FF"/><stop offset="1" stop-color="#0061FF"/></linearGradient><linearGradient id="h" x1="10.539" y1="28.771" x2="1.551" y2="27.699" gradientUnits="userSpaceOnUse"><stop stop-color="#00E0FF"/><stop offset="1" stop-color="#0061FF"/></linearGradient><linearGradient id="i" x1="22.929" y1="48.301" x2="13.941" y2="47.229" gradientUnits="userSpaceOnUse"><stop stop-color="#00E0FF"/><stop offset="1" stop-color="#0061FF"/></linearGradient><linearGradient id="j" x1="22.929" y1="10.081" x2="13.941" y2="9.009" gradientUnits="userSpaceOnUse"><stop stop-color="#00E0FF"/><stop offset="1" stop-color="#0061FF"/></linearGradient></defs></svg>