<svg viewBox="0 0 1022 615" fill="none" xmlns="http://www.w3.org/2000/svg"><mask id="a" style="mask-type:alpha" maskUnits="userSpaceOnUse" x="0" y="0" width="1022" height="615"><path fill="#D9D9D9" d="M0 0h1022v615H0z"/></mask><g mask="url(#a)"><path fill-rule="evenodd" clip-rule="evenodd" d="M1130.27 745.324C996.873 542.381 769.386 408.696 511.138 408.696c-258.255 0-485.741 133.685-619.138 336.628h1238.27Z" fill="#A5A7AA"/><path fill-rule="evenodd" clip-rule="evenodd" d="M1099.52 745.324C970.806 551.459 755.306 424.333 511.138 424.333c-244.175 0-459.674 127.126-588.388 320.991h1176.77Z" fill="#CFD1D1"/><path d="M658.384 538.572c0 29.306-67.195 53.064-150.085 53.064-82.895 0-150.09-23.758-150.09-53.064 0-29.307 67.195-53.065 150.09-53.065 82.89 0 150.085 23.758 150.085 53.065Zm199.037 9.149c0 15.065-34.535 27.278-77.142 27.278-42.601 0-77.142-12.213-77.142-27.278 0-15.058 34.541-27.271 77.142-27.271 42.607 0 77.142 12.213 77.142 27.271Zm-535.77-25.651c0 10.96-25.132 19.843-56.131 19.843-31.004 0-56.131-8.883-56.131-19.843 0-10.965 25.127-19.849 56.131-19.849 30.999 0 56.131 8.884 56.131 19.849Zm-32.79 63.333c0 11.663-26.741 21.12-59.732 21.12-32.986 0-59.733-9.457-59.733-21.12 0-11.664 26.747-21.115 59.733-21.115 32.991 0 59.732 9.451 59.732 21.115Z" fill="#BABCBD"/><path d="M316.649 562.945c0 8.404-19.272 15.218-43.045 15.218-23.772 0-43.044-6.814-43.044-15.218 0-8.41 19.272-15.224 43.044-15.224 23.773 0 43.045 6.814 43.045 15.224Z" fill="#BABCBD"/><path d="m690.37 484.247 2.643 5.358 5.914.858-4.276 4.176 1.012 5.884-5.293-2.779-5.287 2.779 1.012-5.884-4.282-4.176 5.914-.858 2.643-5.358Z" fill="#FFDB15"/><path d="M357.002 48.214c-13.122 33.718-51.772 41.324-44.049 66.053 7.723 24.722 37.681 22.132 33.6 39.633-4.08 17.507-26.398 23.871-23.417 43.282 2.525 16.43 47.828 23.344 37.166 38.468-18.651 26.467 46.817 45.31 77.455 53.283 0 0-92.428-13.65-97.555-40.691-2.643-13.97-49.632-11.634-64.605-26.261-18.911-18.477 20.502-24.746 7.83-36.687-12.679-11.942-66.119-21.665-73.15-49.546-7.032-27.881 9.142-44.092 21.093-55.11 6.641-6.122-49.951 11.414-49.951-15.657 0-66.26 204.341-90.663 175.583-16.767Z" fill="url(#b)"/><path d="M791.361 492.314c0 10.96-25.132 19.843-56.131 19.843-31.004 0-56.131-8.883-56.131-19.843s25.127-19.849 56.131-19.849c30.999 0 56.131 8.889 56.131 19.849Z" fill="#BABCBD"/><path d="M498.974 502.966c11.874-.319 19.668-.307 19.804-.319l.036-30.738c-1.402 0-35.44-.017-71.288 3.1-30.844 2.679-51.003 6.594-64.344 11.219-3.182 1.077-5.961 2.218-8.421 3.401-10.97 5.211-15.304 11.078-17.64 16.969-2.732 6.896-1.857 14.307 2.401 20.316 6.51 9.239 21.265 18.075 84.409 20.305 10.709.384 21.17.502 30.425.502 18.687 0 32.453-.52 33.299-.55l-1.183-30.726c-.278.018-27.74 1.047-57.349.184-22.696-.657-37.74-2.183-47.621-3.762 10.449-2.644 27.184-5.548 53.765-7.653 16.233-1.295 31.963-1.922 43.707-2.248Z" fill="url(#c)"/><path d="m518.814 471.909-5.92 27.384-13.92 3.673c-11.744.326-27.474.953-43.707 2.248-26.581 2.105-43.316 5.009-53.765 7.653 0 0-9.344-2.354-10.112-6.18 0 0 9.745-17.277-16.629-17.058l8.421-3.401c13.34-4.625 33.5-8.54 64.344-11.219 35.848-3.117 69.886-3.1 71.288-3.1Z" fill="url(#d)"/><path d="M578.02 459.057h-59.667a85.565 85.565 0 0 0-.113-15.259c-.964-10.179-3.595-18.909-6.298-25.61-3.672-9.126-7.516-14.461-7.516-14.461l53.831-23.823c3.873 6.5 6.996 13.432 9.485 20.399 5.204 14.461 7.77 28.999 9.048 40.005 1.289 11.22 1.23 18.749 1.23 18.749Z" fill="url(#e)"/><path d="M567.742 400.303c-12.253 13.568-38.142 17.116-55.8 17.885-3.672-9.126-7.516-14.461-7.516-14.461l53.831-23.823c3.873 6.5 6.996 13.432 9.485 20.399ZM515.13 427.48s30.058 10.167 57.846-9.292c0 0-20.154 26.124-57.846 9.292Zm62.89 31.577h-59.667a85.565 85.565 0 0 0-.113-15.259l.574-.231s32.069-12.391 57.976-3.259c1.289 11.22 1.23 18.749 1.23 18.749Z" fill="#039"/><path d="M716.431 478.853c0-.1-.006-.195 0-.29v-4.116l1.81-1.029c.195-.29.39-.58.615-.858 4.943-6.092 15.741-8.12 24.127-4.53 3.536 1.514 6.067 3.797 7.451 6.381l1.224.036v5.074h-.012c-.101 2.065-.887 4.135-2.43 6.039-4.944 6.092-15.742 8.121-24.128 4.531-5.369-2.301-8.432-6.353-8.645-10.57h-.012v-.668Z" fill="#5BD8FF"/><path d="M718.855 467.947c-4.937 6.092-2.146 13.94 6.233 17.53 8.386 3.59 19.184 1.562 24.127-4.53 4.938-6.092 2.147-13.941-6.232-17.531-8.386-3.59-19.184-1.561-24.128 4.531Z" fill="#9FF"/><path d="M558.233 351.467s.083.231.254.668c.095.255.219.568.361.947.13.313.278.68.449 1.094.68 1.638 1.68 3.939 3.04 6.742 1.342 2.816 3.057 6.14 5.139 9.866 2.052 3.738 4.553 7.807 7.362 12.189 2.874 4.33 6.05 8.961 9.68 13.645 1.786 2.366 3.732 4.708 5.683 7.115 2.04 2.348 4.045 4.803 6.263 7.145 4.287 4.802 9.071 9.439 13.991 14.029 5.021 4.501 10.236 8.919 15.724 12.976l4.11 3.034c1.384.988 2.815 1.917 4.21 2.875 1.414.934 2.792 1.916 4.217 2.809l4.293 2.638c2.815 1.792 5.742 3.348 8.598 4.933 2.827 1.638 5.76 2.987 8.592 4.406 2.809 1.455 5.695 2.638 8.469 3.862 1.401.598 2.761 1.236 4.139 1.775 1.39.526 2.756 1.052 4.11 1.567 5.352 2.153 10.591 3.697 15.351 5.252l6.937 1.899c1.1.295 2.17.585 3.211.869 1.053.237 2.076.461 3.069.68 3.968.84 7.386 1.739 10.266 2.153l8.982 1.532 1.875-9.475s-3.063-.852-8.421-2.336c-2.69-.669-5.854-1.863-9.52-3.034-.911-.302-1.857-.61-2.827-.935-.952-.367-1.934-.745-2.945-1.13-2.005-.78-4.122-1.591-6.327-2.442-4.311-1.922-9.042-3.845-13.809-6.358-1.2-.604-2.418-1.213-3.654-1.834-1.224-.627-2.425-1.348-3.655-2.028-2.448-1.402-4.991-2.745-7.433-4.354-2.46-1.567-5.021-3.063-7.445-4.826-2.46-1.721-4.979-3.395-7.368-5.293-1.213-.923-2.425-1.851-3.649-2.78-1.206-.94-2.365-1.964-3.548-2.94-1.177-.993-2.377-1.951-3.536-2.975l-3.418-3.111c-4.56-4.14-8.823-8.587-12.892-13.047-3.974-4.56-7.8-9.09-11.158-13.739-1.751-2.265-3.294-4.631-4.885-6.873-1.508-2.306-3.01-4.536-4.364-6.778-2.768-4.436-5.133-8.777-7.244-12.787-2.04-4.051-3.85-7.789-5.269-11.149a149.502 149.502 0 0 1-3.46-8.7 97.983 97.983 0 0 1-1.827-5.5 45.786 45.786 0 0 1-.23-.793c-.048-.171-.083-.319-.113-.438-.083-.301-.124-.461-.124-.461l-29.254 9.416Z" fill="url(#f)"/><path d="m723.308 472.335 2.549 1.662c.367-.651.822-1.354 1.254-2.005l.473-.704.384-.455.745-.87.184-.218.094-.113.048-.053.242-.313.036-.036.555-.544 1.118-1.071c3.069-2.785 6.789-5.003 10.709-6.446l14.418-8.565h19.218v10.765l-3.353 4.666s-.484-.106-1.389-.295l-.757-.16c-.278-.059-.597-.136-.84-.142-.514-.053-1.1-.118-1.762-.183-.716-.042-1.508-.083-2.371-.131-.87.036-1.763-.017-2.732.083-1.91.071-4.01.468-6.097 1.029-2.082.598-4.169 1.449-6.014 2.579-1.822 1.159-3.454 2.526-4.613 4.146l-.414.615-.213.302-.011.018c.431-.568.106-.136.201-.261l-.036.06-.071.118-.136.236-.568.941c-.082.154-.201.331-.266.467l-.053.254c-.071.355-.219.592-.301 1.1-.107.444-.231.888-.231 1.343a10.605 10.605 0 0 0 .863 5.288c.734 1.685 1.893 3.235 3.306 4.607.325.361.739.668 1.141.982.361.343.828.609 1.242.911.396.331.929.538 1.372.822l.177.1.083.054.048.023c-.196-.071.449.189-.426-.165l.041.017.597.266 1.189.527c.183.077.432.195.556.242l.278.095c.183.065.366.136.544.219.142.089.42.165.692.248l.798.249c1.076.295 2.17.544 3.282.715 1.473.219 2.963.302 4.412.29l-.213-.195 23.352-12.379v10.764s-.183.397-.585 1.142c-.219.361-.414.851-.799 1.36-.39.521-.839 1.112-1.342 1.78a37.85 37.85 0 0 1-2.058 2.065c-.426.354-.869.721-1.33 1.1-.243.189-.485.378-.728.573-.272.178-.544.361-.828.544-2.188 1.52-5.109 2.922-8.622 4.046-3.518 1.1-7.681 1.863-12.223 1.928-1.129-.018-2.294.018-3.459-.077-1.159-.1-2.354-.165-3.531-.355-.591-.094-1.182-.189-1.78-.29a17.966 17.966 0 0 1-1.874-.372c-.657-.172-1.325-.349-1.993-.521l-.993-.278-.681-.212-1.277-.409-.639-.207-.041-.011-.491-.202-.106-.047-.207-.089-.408-.177c-1.088-.497-2.247-.934-3.27-1.538-2.129-1.112-4.128-2.419-5.861-3.921-3.536-2.963-6.073-6.618-7.35-10.469a19.393 19.393 0 0 1-.822-4.607l-.036-.041v-12.214Z" fill="url(#g)"/><path d="m775.336 452.605-1.124-.663c-.183-.106-.384-.225-.609-.355-.225-.136-.45-.278-.834-.437a182.05 182.05 0 0 0-2.507-1.059 71.904 71.904 0 0 0-3.123-.994l-1.862-.443c-.326-.077-.657-.154-.994-.231l-1.052-.16c-2.857-.485-6.239-.692-9.935-.402-3.69.266-7.699 1.059-11.596 2.543-3.921 1.444-7.641 3.661-10.71 6.441l-1.117 1.077-.556.544-.036.035-.242.314-.048.053-.094.112-.183.213-.746.876-.384.455-.473.704c-.609.928-1.295 1.958-1.662 2.815-.437.887-.869 1.798-1.141 2.739-1.277 3.738-1.337 7.783-.142 11.651 1.277 3.85 3.814 7.506 7.351 10.469 1.732 1.496 3.731 2.809 5.86 3.921 1.023.597 2.182 1.041 3.27 1.538l.414.177.201.089.106.047.491.201.042.012.638.201 1.278.414.68.213.993.278c.668.172 1.337.349 1.993.521.692.183 1.283.278 1.874.372.598.095 1.189.195 1.78.29 1.177.189 2.372.254 3.531.355 1.165.095 2.33.053 3.459.077 4.542-.071 8.705-.828 12.223-1.934 3.513-1.118 6.434-2.52 8.622-4.046.284-.177.556-.36.828-.538.243-.195.485-.384.728-.574.461-.384.904-.745 1.33-1.1a36.812 36.812 0 0 0 2.058-2.064c.503-.668.952-1.26 1.342-1.78.385-.509.58-1 .799-1.36.402-.746.585-1.142.585-1.142l-7.037-3.01s-.361.195-.976.573c-.585.397-1.549.888-2.702 1.479-.645.248-1.272.568-1.999.858-.78.236-1.526.561-2.418.774-1.704.521-3.708.876-5.819 1.047-2.112.178-4.376.13-6.6-.201a29.002 29.002 0 0 1-3.282-.716l-.798-.254c-.272-.077-.55-.16-.692-.242a6.056 6.056 0 0 0-.544-.219l-.278-.095c-.124-.047-.373-.165-.556-.242l-1.189-.527-.597-.266-.041-.018c.875.355.23.089.42.166l-.042-.024-.082-.053-.178-.1c-.443-.284-.976-.491-1.372-.823-.414-.307-.881-.567-1.242-.91-.402-.32-.816-.621-1.141-.982-1.413-1.378-2.572-2.922-3.306-4.608a10.622 10.622 0 0 1-.863-5.287c0-.456.124-.899.231-1.343.082-.514.23-.745.301-1.1l.053-.254c.065-.136.184-.314.267-.467l.567-.941.136-.236.071-.119.036-.059c-.095.119.23-.307-.201.26l.011-.017.213-.302.414-.615c1.159-1.621 2.791-2.987 4.613-4.146 1.845-1.13 3.932-1.981 6.014-2.579 2.087-.562 4.187-.958 6.097-1.029.97-.1 1.862-.047 2.732-.083.863.048 1.656.089 2.371.125.662.07 1.248.136 1.762.189.243.006.562.083.84.142l.757.159c.905.19 1.384.296 1.384.296l3.359-4.666Z" fill="url(#h)"/><path d="M716.431 468.089c0-.101-.006-.196 0-.29v-4.117l1.81-1.029c.195-.29.39-.579.615-.857 4.943-6.098 15.741-8.121 24.127-4.531 3.536 1.514 6.067 3.797 7.451 6.376l1.224.041v5.075h-.012c-.101 2.064-.887 4.134-2.43 6.039-4.944 6.092-15.742 8.12-24.128 4.53-5.369-2.301-8.432-6.352-8.645-10.569h-.012v-.668Z" fill="#5BD8FF"/><path d="M718.855 457.182c-4.937 6.092-2.146 13.941 6.233 17.531 8.386 3.59 19.184 1.561 24.127-4.531 4.938-6.092 2.147-13.94-6.232-17.53-8.386-3.59-19.184-1.567-24.128 4.53Z" fill="#9FF"/><path d="M725.65 458.548c-2.696 3.33-1.177 7.624 3.406 9.582 4.577 1.963 10.479.857 13.182-2.472 2.696-3.33 1.176-7.618-3.407-9.582-4.577-1.964-10.478-.852-13.181 2.472Z" fill="#006EFE"/><path d="M300.747 509.052c-.006-.094.006-.195 0-.29v-4.116l-1.809-1.029c-.195-.284-.391-.574-.621-.858-4.938-6.092-15.742-8.12-24.121-4.53-3.543 1.514-6.074 3.797-7.457 6.381l-1.218.036v5.075h.011c.101 2.064.887 4.14 2.431 6.044 4.938 6.092 15.742 8.115 24.121 4.525 5.375-2.301 8.433-6.352 8.651-10.569h.012v-.669Z" fill="#5BD8FF"/><path d="M298.317 498.146c4.943 6.092 2.152 13.94-6.233 17.531-8.379 3.59-19.183 1.567-24.121-4.531-4.944-6.092-2.153-13.94 6.233-17.53 8.379-3.591 19.183-1.562 24.121 4.53Z" fill="#9FF"/><path d="M458.939 381.672s-.076.231-.242.663c-.106.26-.231.567-.367.952-.124.307-.278.674-.449 1.088a132.645 132.645 0 0 1-3.04 6.737c-1.354 2.827-3.063 6.145-5.133 9.865-1.632 2.951-3.518 6.116-5.623 9.469-.574.887-1.153 1.798-1.739 2.721-2.874 4.329-6.055 8.972-9.698 13.662-1.78 2.348-3.72 4.702-5.671 7.115-2.04 2.337-4.057 4.797-6.268 7.133-4.288 4.809-9.066 9.434-13.986 14.029-5.02 4.507-10.248 8.913-15.736 12.971l-4.098 3.046c-1.383.982-2.814 1.904-4.21 2.874-1.413.935-2.797 1.905-4.21 2.81-1.449.881-2.874 1.756-4.306 2.631-2.814 1.798-5.73 3.348-8.592 4.933-2.826 1.644-5.76 2.981-8.586 4.412-2.815 1.461-5.701 2.626-8.486 3.857-1.396.597-2.75 1.248-4.134 1.786-1.383.52-2.749 1.041-4.104 1.549-5.357 2.165-10.603 3.703-15.351 5.258-2.425.657-4.731 1.29-6.943 1.905-1.094.29-2.17.585-3.211.857-1.046.249-2.075.462-3.057.692-3.98.834-7.392 1.739-10.266 2.153-.23.048-.461.077-.692.107a.915.915 0 0 1-.295.047c-2.241.384-4.057.692-5.393.923-.462.077-.846.153-1.183.201-.308.059-.55.089-.751.124l-.674.118-.663-3.318-.201-1.011-1.011-5.134s.645-.189 1.857-.526c.248-.059.509-.136.798-.213 1.059-.29 2.413-.674 4.057-1.124.538-.154 1.106-.308 1.709-.473.473-.124.964-.266 1.472-.414.095-.018.184-.047.278-.083 2.289-.674 4.873-1.609 7.777-2.531.904-.308 1.845-.615 2.809-.941.969-.366 1.939-.751 2.95-1.135 2.017-.787 4.122-1.597 6.334-2.443 4.317-1.922 9.036-3.844 13.796-6.364 1.218-.597 2.43-1.212 3.66-1.828 1.23-.632 2.425-1.354 3.655-2.028 2.442-1.402 4.997-2.739 7.439-4.353 2.46-1.568 5.009-3.058 7.439-4.826 2.46-1.722 4.98-3.395 7.375-5.3 1.212-.923 2.43-1.845 3.642-2.768 1.212-.952 2.366-1.969 3.548-2.933 1.183-1 2.383-1.97 3.537-2.981l3.424-3.123c4.553-4.134 8.822-8.576 12.897-13.047 3.962-4.549 7.788-9.085 11.153-13.728 1.75-2.271 3.288-4.637 4.89-6.884 1.502-2.307 3.01-4.531 4.364-6.761 2.762-4.441 5.116-8.777 7.238-12.805.935-1.845 1.81-3.625 2.644-5.334.964-2.041 1.857-3.981 2.625-5.808a153.924 153.924 0 0 0 3.46-8.701 110.202 110.202 0 0 0 1.827-5.5c.089-.29.166-.568.231-.787.047-.183.077-.319.106-.443.089-.308.124-.462.124-.462l29.254 9.422Z" fill="url(#i)"/><path d="m293.864 502.541-2.549 1.661c-.366-.656-.822-1.354-1.247-2.01l-.479-.704-.379-.45-.745-.875-.189-.219-.089-.106-.047-.054-.249-.319-.029-.036-.556-.544-1.118-1.07c-3.075-2.786-6.794-5.004-10.715-6.447l-14.417-8.564h-19.219v10.764l3.359 4.667s.485-.101 1.384-.296c.23-.047.479-.1.757-.16.277-.059.597-.136.845-.142.509-.053 1.1-.112 1.762-.183.716-.041 1.508-.083 2.366-.13.869.035 1.768-.018 2.732.083 1.916.077 4.009.467 6.103 1.029 2.081.603 4.169 1.449 6.014 2.584 1.815 1.154 3.453 2.52 4.606 4.141l.42.615.213.301.012.024c-.438-.568-.113-.142-.201-.26l.029.059.071.112.142.237.562.946c.089.154.201.326.272.462l.053.254c.071.361.213.591.296 1.1.106.444.231.887.236 1.343a10.736 10.736 0 0 1-.863 5.287c-.733 1.692-1.898 3.235-3.306 4.607-.325.361-.745.669-1.141.982-.367.343-.828.609-1.248.917-.39.325-.922.532-1.372.816l-.171.107-.089.047-.041.03c.189-.077-.456.183.42-.166l-.036.012-.597.266-1.189.526c-.183.083-.437.201-.556.243l-.277.094a8.602 8.602 0 0 0-.545.219c-.141.089-.419.166-.691.249l-.799.248a29.325 29.325 0 0 1-3.288.716 28.447 28.447 0 0 1-4.411.295l.219-.195-23.353-12.385v10.765s.178.402.586 1.141c.213.361.408.858.798 1.366.39.515.834 1.112 1.336 1.775.58.639 1.266 1.331 2.058 2.07l1.337 1.094c.236.189.479.385.727.58l.822.538c2.194 1.52 5.115 2.928 8.628 4.045 3.513 1.101 7.682 1.863 12.223 1.929 1.13-.018 2.289.017 3.454-.077 1.159-.101 2.359-.166 3.536-.355.585-.095 1.183-.19 1.774-.29.591-.095 1.189-.189 1.875-.373a329.33 329.33 0 0 0 1.992-.52l1-.278.68-.213 1.271-.408.645-.207.035-.012.497-.201.101-.041.207-.095.413-.178c1.089-.496 2.242-.934 3.265-1.531 2.129-1.118 4.133-2.425 5.86-3.928 3.542-2.963 6.073-6.618 7.351-10.468.473-1.52.739-3.064.821-4.608l.036-.041v-12.207Z" fill="url(#j)"/><path d="M241.837 482.804s.39-.231 1.124-.657c.183-.112.39-.23.615-.36.218-.136.443-.278.833-.432.71-.314 1.544-.668 2.508-1.059a62.756 62.756 0 0 1 3.122-.999c.597-.142 1.218-.29 1.857-.444.325-.077.662-.148.999-.225.343-.053.698-.106 1.053-.165 2.856-.485 6.239-.686 9.929-.397 3.696.261 7.699 1.053 11.596 2.538 3.921 1.443 7.64 3.661 10.715 6.446l1.118 1.071.556.544.029.036.249.313.047.059.089.107.189.219.745.869.379.455.479.704c.609.935 1.289 1.964 1.655 2.816.444.893.87 1.798 1.148 2.738 1.271 3.738 1.33 7.783.136 11.651-1.278 3.851-3.809 7.506-7.351 10.469-1.727 1.502-3.731 2.809-5.86 3.921-1.023.604-2.176 1.041-3.265 1.538l-.413.178-.207.088-.101.048-.497.201-.035.012-.645.207-1.271.408-.68.213-1 .278c-.668.171-1.33.348-1.992.52-.686.183-1.284.278-1.875.373-.591.1-1.189.195-1.774.289-1.177.19-2.377.255-3.536.355-1.165.095-2.324.059-3.454.077-4.541-.065-8.71-.828-12.223-1.928-3.513-1.124-6.434-2.525-8.628-4.045-.278-.184-.55-.367-.822-.545-.248-.195-.491-.384-.727-.573-.461-.379-.911-.746-1.337-1.1a37.85 37.85 0 0 1-2.058-2.065 1233.3 1233.3 0 0 1-1.336-1.78c-.39-.508-.585-.999-.798-1.36-.408-.745-.586-1.142-.586-1.142l7.031-3.01s.367.201.976.58c.592.39 1.55.887 2.703 1.478.65.243 1.271.562 1.998.852.781.242 1.526.562 2.425.775 1.697.52 3.702.881 5.819 1.052 2.111.172 4.37.125 6.593-.207a29.322 29.322 0 0 0 3.288-.715l.799-.249c.272-.082.55-.159.691-.248.178-.083.361-.154.545-.219l.277-.095c.119-.041.373-.159.556-.242l1.189-.526.597-.267.036-.017c-.876.355-.231.094-.42.165l.041-.023.089-.054.171-.1c.45-.284.982-.491 1.372-.822.42-.302.881-.568 1.248-.911.396-.314.816-.621 1.141-.982 1.408-1.372 2.573-2.922 3.306-4.607a10.74 10.74 0 0 0 .863-5.288c-.005-.455-.13-.899-.236-1.342-.083-.509-.225-.746-.296-1.1l-.053-.255c-.071-.136-.183-.313-.272-.461l-.562-.946-.142-.237-.071-.118-.029-.059c.088.124-.237-.308.201.26l-.012-.018-.213-.302-.42-.615c-1.153-1.62-2.791-2.987-4.606-4.146-1.845-1.129-3.933-1.981-6.014-2.578-2.094-.562-4.187-.959-6.103-1.03-.964-.1-1.863-.047-2.732-.082-.858.047-1.65.088-2.366.13-.662.065-1.253.13-1.768.183-.242.006-.562.083-.839.142l-.757.16c-.899.195-1.384.295-1.384.295l-3.359-4.666Z" fill="url(#k)"/><path d="M300.747 498.288c-.006-.101.006-.196 0-.29v-4.117l-1.809-1.029c-.195-.29-.391-.579-.621-.857-4.938-6.092-15.742-8.121-24.121-4.531-3.543 1.514-6.074 3.797-7.457 6.382l-1.218.035v5.075h.011c.101 2.064.887 4.14 2.431 6.039 4.938 6.092 15.742 8.12 24.121 4.53 5.375-2.301 8.433-6.352 8.651-10.569h.012v-.668Z" fill="#5BD8FF"/><path d="M298.317 487.382c4.943 6.092 2.152 13.94-6.233 17.53-8.379 3.59-19.183 1.562-24.121-4.53-4.944-6.092-2.153-13.941 6.233-17.531 8.379-3.59 19.183-1.561 24.121 4.531Z" fill="#9FF"/><path d="M291.522 488.754c2.703 3.33 1.177 7.618-3.4 9.575-4.583 1.964-10.485.858-13.181-2.472-2.703-3.33-1.177-7.618 3.406-9.581 4.577-1.964 10.479-.852 13.175 2.478Z" fill="#006EFE"/><path d="M458.94 381.672s-.077.231-.243.663c-.106.26-.23.567-.366.952-.125.307-.278.674-.45 1.088a132.467 132.467 0 0 1-3.039 6.737c-1.355 2.827-3.064 6.145-5.133 9.865-1.633 2.951-3.519 6.116-5.624 9.469-10.792-4.016-18.013-10.392-22.773-16.495.964-2.041 1.857-3.981 2.626-5.808a153.823 153.823 0 0 0 3.459-8.701 110.202 110.202 0 0 0 1.827-5.5c.089-.29.166-.568.231-.787.047-.183.077-.319.106-.443.089-.308.125-.462.125-.462l29.254 9.422Zm-49.863 34.109s.248.373.698.958a31.59 31.59 0 0 0 1.963 2.271c.432.432.893.893 1.402 1.361.502.467 1.058.916 1.638 1.378.55.496 1.235.863 1.845 1.336.656.403 1.318.834 2.004 1.225.704.349 1.378.768 2.094 1.082.727.29 1.389.71 2.105.958.709.249 1.384.55 2.034.822.668.207 1.301.438 1.887.657.579.219 1.123.42 1.614.562.491.147.922.307 1.277.431.704.261 1.118.438 1.118.438s-.426.083-1.183.172c-.378.041-.84.094-1.372.124a9.458 9.458 0 0 1-1.786.006c-.65-.036-1.366-.071-2.117-.16-.739-.142-1.525-.284-2.33-.485-.804-.189-1.62-.491-2.442-.793-.834-.283-1.608-.757-2.413-1.141a25.18 25.18 0 0 1-2.235-1.485c-.68-.573-1.354-1.123-1.922-1.756-.609-.586-1.1-1.248-1.543-1.875-.467-.615-.81-1.266-1.118-1.851a12.001 12.001 0 0 1-.704-1.686c-.195-.497-.278-.97-.372-1.343-.142-.762-.142-1.206-.142-1.206Zm-15.89 21.168s1.083 1.053 2.514 2.626c1.472 1.549 3.276 3.637 5.156 5.607.479.479.94.988 1.414 1.455.49.443.922.958 1.407 1.366.467.42.893.887 1.348 1.248.45.367.84.798 1.254 1.106.408.313.775.633 1.106.917.343.266.65.491.899.68.502.396.792.65.792.65s-.367-.005-1.023-.082c-.662-.048-1.579-.249-2.649-.627-.55-.166-1.083-.45-1.674-.728-.597-.266-1.153-.65-1.75-1.029-.609-.372-1.153-.846-1.727-1.313-.58-.461-1.082-1.011-1.626-1.526-1.011-1.094-1.928-2.259-2.667-3.436a20.59 20.59 0 0 1-1.745-3.348c-.863-2.046-1.029-3.566-1.029-3.566Zm-18.485 18.684s.946.958 2.111 2.431c1.212 1.449 2.637 3.424 4.057 5.358.715.958 1.425 1.916 2.093 2.815a747.76 747.76 0 0 0 1.892 2.449c.598.68 1.071 1.325 1.455 1.727.367.432.579.71.579.71s-.331-.048-.898-.19c-.272-.082-.645-.141-1.006-.313a13.62 13.62 0 0 1-1.242-.568 14.159 14.159 0 0 1-2.773-1.958c-.922-.822-1.798-1.809-2.578-2.856-.757-1.065-1.437-2.177-1.958-3.271a18.966 18.966 0 0 1-1.182-3.105c-.55-1.869-.55-3.229-.55-3.229Zm-18.101 13.982s.804.91 1.709 2.306c.473.692.969 1.502 1.472 2.378.509.875 1.005 1.816 1.514 2.738.485.923.976 1.846 1.431 2.709.219.45.461.834.668 1.236.201.414.438.745.621 1.106.195.355.408.627.58.917.177.29.343.532.496.71.302.39.479.656.479.656s-.284-.023-.81-.142a3.227 3.227 0 0 1-.905-.307c-.319-.16-.745-.32-1.088-.592-.36-.26-.804-.52-1.159-.881-.366-.349-.78-.716-1.117-1.147a14.974 14.974 0 0 1-1.91-2.822c-1.077-2.034-1.721-4.234-1.922-5.95-.243-1.703-.059-2.915-.059-2.915Zm-18.533 11.207s.668.852 1.348 2.142c.727 1.283 1.455 3.01 2.111 4.702.313.845.633 1.691.922 2.484.284.792.562 1.514.811 2.141.266.621.508 1.165.739 1.514.225.366.366.621.366.621s-.254-.018-.727-.124a2.546 2.546 0 0 1-.798-.302c-.302-.148-.651-.331-.946-.592-.663-.485-1.307-1.177-1.851-1.981-.568-.804-1.011-1.721-1.384-2.661-.721-1.887-1.005-3.874-.952-5.394.018-1.514.361-2.55.361-2.55Zm-20.911 9.517s.627.704 1.23 1.756c.645 1.053 1.26 2.473 1.745 3.904.479 1.437.846 2.892 1.017 4.087.112.58.154 1.112.207 1.484.036.379.036.621.036.621s-.213-.088-.55-.289a6.237 6.237 0 0 1-1.254-.988c-.946-.905-1.845-2.372-2.365-3.939-.521-1.573-.692-3.229-.55-4.501.094-1.266.484-2.135.484-2.135Z" fill="#039"/><path d="M588.049 329.773c11.117 31.79-15.198 69.897-58.768 85.138-43.577 15.242-87.899 1.846-99.016-29.939-6.588-18.831-.018-39.899 15.505-57.104 10.65-11.817 25.535-21.813 43.275-28.017 17.735-6.204 35.605-7.671 51.3-5.069 22.855 3.78 41.122 16.165 47.704 34.991Z" fill="url(#l)"/><path d="M568.209 320.469c9.03 25.823-12.353 56.797-47.763 69.182-35.404 12.391-71.435 1.496-80.465-24.327-4.258-12.172-1.751-25.491 5.789-37.456 10.65-11.817 25.534-21.813 43.275-28.017 17.735-6.204 35.605-7.671 51.3-5.069 13.346 4.661 23.606 13.515 27.864 25.687Z" fill="url(#m)"/><path d="m543.443 241.422-17.297 20.163 7.505 1.638-10.414 20.464 19.976-23.439-8.007-1.745 8.237-17.081Zm-39.088 202.837-24.884-9.309 1.047 7.612-22.791-2.745 28.87 10.7-1.112-8.121 18.87 1.863Zm334.208 46.447-26.487 2.016 4.151 6.465-21.838 7.097 30.697-2.436-4.423-6.897 17.9-6.245Zm-92.801 25.444-25.534-7.322 1.644 7.511-22.945-.946 29.633 8.392-1.757-8.002 18.959.367Zm-248.326-60.21-16.989.012 3.926 5.022-12.997 4.033 19.674-.089-4.187-5.352 10.573-3.626Zm14.613-229.245-3.75 26.308 7.209-2.662 2.212 22.86 4.246-30.507-7.688 2.839-2.229-18.838Zm-144.515 181.74 25.086-8.747-5.672-5.181 19.29-12.462-29.047 10.226 6.05 5.536-15.707 10.628Zm-25.315-32.003 26.084 5.01-2.306-7.329 22.933-1.111-30.26-5.714 2.46 7.819-18.911 1.325Z" fill="#FFDB15"/><path d="M505.295 343.991c0 12.089-9.798 21.895-21.892 21.895-12.087 0-21.891-9.806-21.891-21.895 0-12.095 9.804-21.895 21.891-21.895 12.094 0 21.892 9.8 21.892 21.895Z" fill="#039"/><path d="m484.024 282.776-74.806 64.249c-8.97 7.713-6.043 26.639-13.749 17.667l-40.087-47.109c-7.705-8.972-6.671-22.623 2.306-30.33l74.806-64.249c8.971-7.706 22.619-6.671 30.324 2.301l36.723 43.223c7.705 8.978-6.546 6.542-15.517 14.248Z" fill="url(#n)"/><path d="m384.394 245.556 28.035 36.51 6.239-5.358-31.85-33.228-2.424 2.076Z" fill="#039"/><path d="M518.145 323.001 443.34 387.25c-8.977 7.706-22.62 6.665-30.331-2.307l-23.506-27.142c-7.705-8.972-6.67-22.622 2.306-30.329l74.8-64.249c8.977-7.707 22.625-6.671 30.331 2.307l23.506 27.135c7.705 8.979 6.67 22.629-2.301 30.336Z" fill="url(#o)"/><path d="m510.949 316.229-73.215 62.882c-5.027 4.318-12.667 3.738-16.984-1.289l-23.039-26.597c-4.317-5.022-3.737-12.669 1.289-16.981l73.215-62.889c5.027-4.311 12.667-3.732 16.984 1.296l23.039 26.591c4.317 5.027 3.737 12.669-1.289 16.987Z" fill="#006"/><path d="M389.852 240.866a5.602 5.602 0 0 1-4.668 9.234 5.586 5.586 0 0 1-3.824-1.935 5.6 5.6 0 0 1 8.492-7.299Z" fill="#EB1C23"/><path d="m433.233 330.879-.396-.462 2.72-2.336-1.354-1.567 2.72-2.336-1.348-1.574 2.715-2.33-2.703-3.141-5.429 4.673 1.349 1.567-2.715 2.336 1.349 1.568-2.715 2.336 1.349 1.567-.799.686-1.916 1.651-.798.686-1.348-1.568-2.714 2.336-1.349-1.573-2.72 2.336-1.348-1.567-5.429 4.673 2.697 3.134 2.714-2.336 1.354 1.573 2.714-2.336 1.349 1.567 2.714-2.336.396.462.952 1.106.397.461-2.715 2.336 1.348 1.567-2.714 2.337 1.348 1.573-2.714 2.33 2.697 3.141 5.428-4.673-1.348-1.567 2.714-2.336-1.348-1.568 2.714-2.336-1.348-1.567.798-.686 1.922-1.65.793-.686 1.354 1.567 2.714-2.336 1.348 1.573 2.715-2.336 1.348 1.567 5.429-4.672-2.697-3.135-2.714 2.336-1.348-1.573-2.715 2.336-1.348-1.567-2.72 2.336-.396-.461-.953-1.106Zm38.645-33.24-.396-.461 2.72-2.33-1.354-1.574 2.72-2.33-1.354-1.573 2.72-2.336-2.702-3.135-5.429 4.672 1.348 1.568-2.714 2.336 1.348 1.567-2.714 2.337 1.348 1.567-.798.686-1.916 1.65-.798.686-1.348-1.567-2.715 2.33-1.348-1.567-2.72 2.336-1.349-1.567-5.428 4.666 2.696 3.141 2.715-2.336 1.354 1.567 2.714-2.336 1.348 1.573 2.715-2.336.396.461.952 1.106.396.461-2.714 2.337 1.348 1.567-2.714 2.336 1.348 1.568-2.714 2.336 2.696 3.14 5.429-4.672-1.348-1.567 2.714-2.337-1.348-1.567 2.714-2.336-1.348-1.568.798-.686 1.916-1.65.798-.686 1.349 1.567 2.72-2.336 1.348 1.568 2.715-2.331 1.348 1.568 5.428-4.673-2.696-3.134-2.714 2.336-1.349-1.574-2.714 2.337-1.348-1.568-2.721 2.337-.396-.462-.952-1.112Zm-37.805 54.745 2.697 3.14 28.739-24.716 7.333 8.522 2.714-2.336 1.349 1.574 2.714-2.337 1.354 1.568 5.429-4.673 5.428-4.666-1.348-1.568 2.714-2.336-1.348-1.573 2.253-1.934-7.327-8.529-2.702-3.14-49.999 43.004Zm53.251-28.236-2.253 1.94 1.349 1.567-2.715 2.337-2.714 2.336-1.354-1.573-2.715 2.336-5.978-6.956 3.838-3.306 2.312 2.691 2.714-2.336-2.306-2.691 3.838-3.3 5.984 6.955Z" fill="#96FFFF"/><path d="M566.406 357.245c4.376 5.111 2.454 13.947-4.305 19.731-6.754 5.784-15.778 6.323-20.16 1.213-4.376-5.116-2.448-13.953 4.305-19.737 6.76-5.784 15.784-6.323 20.16-1.207Z" fill="#039"/><path d="M560.569 358.452c3.229 3.768 1.803 10.279-3.176 14.544-4.979 4.258-11.626 4.66-14.854.893-3.223-3.774-1.804-10.285 3.175-14.544 4.979-4.264 11.626-4.666 14.855-.893Z" fill="#9FF"/><path d="M758.358 523.377c-.089-.355-9.19-36.161-24.867-71.896-18.402-41.952-38.591-66.905-55.391-68.46-36.64-3.413-65.995 57.358-74.209 81.058l-29.053-10.031c1.52-4.413 38.018-107.981 106.1-101.635 29.568 2.739 56.77 32.039 80.85 87.073 16.652 38.054 25.989 74.842 26.38 76.392l-29.81 7.499Z" fill="url(#p)"/><path d="M756.353 512.258s23.051 4.501 29.964-2.449c0 0 43.027 6.116 52.246 46.843 0 0-17.67 19.979-56.09 10.758-38.414-9.22-47.633-19.979-47.633-19.979s-3.075-16.554 21.513-35.173Z" fill="url(#q)"/><path d="M757.122 516.31s-16.138 8.836-18.06 30.353c0 0 50.555 30.944 82.44 14.809 0 0-5.99-29.122-42.098-41.703 0 0-14.601.385-22.282-3.459Z" fill="url(#r)"/><path d="M589.202 451.664c-10.189-5.595-22.868-8.913-36.599-8.931-13.737-.017-26.415 3.265-36.622 8.837-9.994 5.447-17.605 13.082-21.537 21.93 6.978 7.464 7.078 20.518.313 28.153 8.208 17.513 30.934 30.123 57.728 30.158 33.731.048 61.104-19.855 61.134-44.465.023-14.579-9.574-27.538-24.417-35.682Z" fill="url(#s)"/><path d="M602.194 476.126c-.029 19.991-22.27 36.167-49.685 36.132-27.409-.036-49.614-16.277-49.585-36.268.012-9.421 4.962-17.997 13.057-24.42 10.207-5.572 22.885-8.854 36.622-8.837 13.732.018 26.41 3.336 36.599 8.931 8.072 6.447 13.004 15.035 12.992 24.462Z" fill="url(#t)"/><path d="M493.196 517.463s10.378-18.448 44.18-16.91c0 0 35.197 20.748 40.649 36.12 5.447 15.372 7.611 33.813 0 37.657-7.61 3.839-64.398.769-82.871-26.899 0 0 6.871-9.22-1.958-29.968Z" fill="url(#u)"/><path d="M537.376 500.553s-29.455 3.076-38.934 16.525c0 0 20.975 47.576 79.584 34.896 0 0 8.148-20.677-40.65-51.421Z" fill="url(#v)"/><path d="M391.389 506.687s-2.312-1.118-5.777-2.449a55.277 55.277 0 0 0-5.961-1.887c-1.094-.278-2.235-.479-3.388-.656-1.154-.195-2.33-.249-3.495-.266-1.159.011-2.33.041-3.442.266-1.118.195-2.2.473-3.229.828-.502.213-.993.426-1.478.627-.467.248-.94.467-1.384.715-.432.272-.851.539-1.259.793-.391.29-.775.568-1.142.834-.698.579-1.36 1.118-1.904 1.638-.52.55-1.047.976-1.401 1.402-.745.816-1.207 1.283-1.207 1.283s.243-.597.716-1.638c.23-.532.603-1.112 1.011-1.798.42-.686.964-1.414 1.608-2.177.338-.366.692-.751 1.059-1.147.396-.361.834-.716 1.271-1.094.456-.355.952-.68 1.455-1.035.515-.331 1.076-.603 1.638-.899 1.165-.503 2.395-1.017 3.714-1.248 1.301-.296 2.649-.379 3.991-.42 1.337.053 2.667.16 3.945.408 1.289.213 2.501.609 3.666.994 1.159.39 2.241.875 3.241 1.372a25.33 25.33 0 0 1 2.732 1.532c3.294 2.058 5.02 4.022 5.02 4.022Zm5.559 4.613s-2.773.432-6.759 1.313c-.999.225-2.07.491-3.187.787-1.124.289-2.277.668-3.466 1.046A41.538 41.538 0 0 0 380 515.86c-1.165.526-2.312 1.135-3.347 1.869-1.088.668-2.028 1.496-2.874 2.372-.798.91-1.544 1.845-2.058 2.886-.296.503-.432 1.064-.686 1.567-.16.538-.331 1.071-.461 1.603a216.34 216.34 0 0 1-.266 1.585c-.042.527-.077 1.035-.119 1.526-.023.491.024.97.018 1.425-.006.462 0 .899.059 1.308.101.81.107 1.555.231 2.141.189 1.188.272 1.892.272 1.892s-.325-.609-.858-1.727c-.289-.55-.514-1.26-.798-2.082-.307-.816-.485-1.786-.686-2.856-.053-.545-.112-1.112-.171-1.698-.018-.597.029-1.212.047-1.851.071-.639.183-1.295.302-1.964.195-.656.36-1.342.656-1.993.55-1.319 1.319-2.62 2.312-3.744 1.005-1.106 2.123-2.135 3.371-2.945 1.242-.828 2.56-1.479 3.879-2.035 1.313-.573 2.661-.934 3.956-1.283 2.602-.651 5.074-.911 7.185-.988 4.222-.171 6.984.432 6.984.432Zm15.765 3.046s-1.513 1.845-3.595 4.595c-.503.698-1.047 1.449-1.62 2.248-.568.792-1.106 1.668-1.674 2.549-1.076 1.798-2.123 3.756-2.773 5.784-.367 1.006-.544 2.029-.698 3.04-.059 1-.154 2 .047 2.94.136.952.42 1.845.751 2.691.207.408.408.81.598 1.195.212.378.455.733.674 1.082.479.668.94 1.301 1.401 1.816.479.491.852 1.005 1.23 1.336a47.83 47.83 0 0 1 1.141 1.154s-.544-.213-1.496-.657c-.49-.201-1.017-.562-1.649-.946a13.632 13.632 0 0 1-1.97-1.55c-.319-.337-.68-.674-1.017-1.058a31.086 31.086 0 0 1-.934-1.29c-.556-.946-1.112-2.011-1.378-3.211-.337-1.189-.42-2.472-.373-3.756.113-1.272.343-2.555.752-3.75.402-1.2.91-2.348 1.519-3.401.568-1.082 1.284-2.028 1.952-2.951a29.526 29.526 0 0 1 4.234-4.465c2.708-2.354 4.878-3.395 4.878-3.395Zm26.381 1.963s1.141 1.716 2.217 4.56c.266.71.55 1.485.793 2.313.23.84.526 1.715.697 2.65.452 1.939.735 3.914.846 5.902.089 1.012.035 2.047.03 3.052-.03 1.006-.202 1.999-.29 2.957a38.712 38.712 0 0 1-.592 2.733 48.126 48.126 0 0 1-.839 2.366 32.4 32.4 0 0 1-1 1.881c-.266.567-.686.97-.946 1.33-.573.704-.916 1.071-.916 1.071s.124-.509.372-1.343c.107-.426.314-.893.402-1.49.107-.592.231-1.242.391-1.934.076-.722.153-1.497.283-2.295.048-.822.071-1.686.154-2.567v-2.75c-.065-.941-.018-1.893-.118-2.851-.053-.958-.101-1.916-.195-2.857-.077-.946-.142-1.88-.249-2.785-.195-1.822-.372-3.525-.532-4.98-.343-2.934-.508-4.963-.508-4.963Zm26.735 1.148s1.46 1.461 3.075 4.051c.408.645.822 1.361 1.23 2.129.39.781.845 1.591 1.2 2.479.355.887.781 1.786 1.076 2.75.343.946.627 1.94.864 2.939.266.994.425 2.029.573 3.034.195 1 .142 2.035.219 3.005.03.976-.095 1.934-.16 2.827-.13.899-.343 1.733-.52 2.49-.231.757-.544 1.426-.787 2.005-.201.598-.585 1.041-.827 1.42-.521.745-.828 1.129-.828 1.129s.088-.52.266-1.372c.077-.426.242-.911.266-1.514.047-.586.106-1.242.165-1.958-.023-.727-.017-1.49-.023-2.3-.083-.811-.166-1.662-.249-2.55-.159-.881-.26-1.786-.461-2.702-.207-.923-.355-1.864-.621-2.786a39.892 39.892 0 0 0-.721-2.78 61.405 61.405 0 0 0-.769-2.697c-.266-.881-.52-1.727-.769-2.531-.278-.793-.49-1.568-.721-2.277-.911-2.822-1.478-4.791-1.478-4.791Zm284.031-25.515s1.987-.083 4.855-.083c1.425-.012 3.087-.018 4.867-.03.881-.023 1.786-.041 2.714-.065.917-.035 1.845-.053 2.768-.124 3.701-.207 7.297-.775 9.786-1.857.32-.124.61-.266.882-.414.277-.136.555-.266.78-.42.485-.29.887-.574 1.218-.828.651-.52 1.017-.869 1.017-.869s-.041.118-.124.331c-.1.207-.183.562-.426.928-.218.385-.496.858-.916 1.325a8.41 8.41 0 0 1-1.526 1.461c-.603.491-1.319.946-2.117 1.331a15.12 15.12 0 0 1-2.566 1.041c-.917.272-1.863.538-2.845.692-.981.171-1.981.284-2.974.343-1.993.124-3.98.035-5.813-.178a33.879 33.879 0 0 1-4.95-.928c-2.85-.734-4.63-1.656-4.63-1.656Zm-12.087-30.3s1.863-.787 4.677-1.644c1.402-.444 3.046-.917 4.808-1.384 1.756-.473 3.631-.953 5.511-1.408 1.869-.449 3.738-.899 5.494-1.319 1.745-.438 3.359-.858 4.731-1.26.674-.224 1.295-.426 1.833-.627.532-.218.994-.42 1.366-.621.337-.218.651-.378.81-.538l.272-.236c-.018-.018-.124.502-.686 1.236a8.463 8.463 0 0 1-1.153 1.165 14.01 14.01 0 0 1-1.709 1.224c-1.301.81-2.903 1.573-4.654 2.236-.881.319-1.786.674-2.726.94-.934.296-1.892.544-2.856.787a58.154 58.154 0 0 1-5.701 1.07 52.59 52.59 0 0 1-5.038.468c-2.969.142-4.979-.089-4.979-.089Zm-11.165-24.9s1.159-1.686 3.477-3.62c1.141-.999 2.579-2.017 4.181-3.01.828-.45 1.644-1 2.555-1.408a30.535 30.535 0 0 1 2.749-1.224c.935-.379 1.893-.71 2.851-.982.94-.325 1.916-.491 2.838-.698.917-.236 1.839-.313 2.703-.414.425-.047.845-.094 1.253-.136l1.183-.018a19.41 19.41 0 0 1 3.643.207c.875.125 1.366.225 1.366.225s-.491.16-1.331.39c-.42.107-.922.249-1.502.373-.573.166-1.218.349-1.922.55-1.401.367-3.004.887-4.701 1.443-.851.272-1.721.58-2.602.911-.875.319-1.774.633-2.649 1.006-1.78.68-3.525 1.455-5.174 2.164-.816.379-1.609.74-2.36 1.089-.751.354-1.461.692-2.117.999a3531.371 3531.371 0 0 1-4.441 2.153Zm-13.027-26.296s.42-2.046 1.91-4.767c.39-.662.774-1.419 1.307-2.129.502-.739 1.04-1.514 1.697-2.236.615-.757 1.336-1.478 2.081-2.2.751-.704 1.597-1.343 2.443-1.981.916-.539 1.756-1.201 2.738-1.603.952-.45 1.892-.87 2.873-1.118.485-.136.953-.29 1.42-.396.467-.113.946-.13 1.395-.195.911-.113 1.763-.219 2.561-.113a25.14 25.14 0 0 1 2.129.189c.627.148 1.159.308 1.59.432.864.26 1.337.438 1.337.438s-.52.077-1.396.171c-.437.042-.964.101-1.555.136-.597.113-1.254.273-1.957.391-.716.089-1.449.378-2.23.603-.384.124-.786.207-1.177.379-.384.189-.792.337-1.194.514-.828.278-1.591.793-2.407 1.207-.828.396-1.567 1.005-2.371 1.484a52.503 52.503 0 0 0-2.241 1.71c-.698.621-1.455 1.165-2.082 1.815a51.036 51.036 0 0 0-1.886 1.816c-.598.586-1.118 1.183-1.65 1.709-.982 1.094-1.839 2.017-2.413 2.685-.585.675-.922 1.059-.922 1.059Zm-20.952-20.949s-.408-2.07-.278-5.187c.047-1.555.225-3.371.592-5.293.195-.959.384-1.952.674-2.946.266-.993.615-1.993.981-2.981.402-.981.816-1.957 1.313-2.88.473-.935 1.053-1.804 1.626-2.632 1.165-1.644 2.525-3.01 3.862-3.933.662-.467 1.301-.846 1.904-1.106.574-.308 1.141-.444 1.573-.597.438-.136.81-.166 1.047-.219.242-.048.366-.065.366-.065s-.414.301-1.141.834c-.337.289-.763.597-1.195 1.023-.443.402-.893.911-1.377 1.443-.935 1.106-1.881 2.49-2.75 4.069-.45.781-.834 1.638-1.236 2.502a55.129 55.129 0 0 0-1.13 2.673 99.812 99.812 0 0 0-1.898 5.465c-.562 1.78-1.041 3.466-1.478 4.921-.834 2.91-1.455 4.909-1.455 4.909Zm-23.613-7.494s-1.513-1.265-3.122-3.708c-.39-.615-.845-1.266-1.212-2.017-.402-.739-.81-1.526-1.141-2.383-.734-1.68-1.295-3.584-1.662-5.536-.107-.988-.319-1.964-.308-2.952-.029-.981-.041-1.945.089-2.88.083-.934.201-1.833.461-2.661.225-.828.396-1.615.745-2.289.296-.686.598-1.296.864-1.828.313-.509.638-.928.887-1.277.508-.692.816-1.053.816-1.053s-.083.497-.266 1.307c-.095.396-.207.881-.337 1.437-.071.568-.142 1.201-.261 1.869-.141.663-.1 1.42-.177 2.183-.095.762-.018 1.579-.029 2.413-.042.834.136 1.697.177 2.567.053.869.26 1.75.361 2.637.171.882.349 1.763.538 2.626.242.858.378 1.733.65 2.544.237.822.45 1.626.698 2.377.242.763.467 1.479.68 2.141l1.549 4.483Zm-21.809 12.764s-1.85-.87-4.257-2.679c-1.213-.888-2.555-2.023-3.915-3.324-.65-.68-1.378-1.331-2.022-2.088-.663-.745-1.325-1.502-1.934-2.313-1.242-1.597-2.342-3.33-3.188-5.057-.484-.828-.774-1.738-1.099-2.555-.361-.804-.479-1.679-.675-2.419-.224-.733-.189-1.49-.254-2.111-.012-.314-.053-.597-.041-.87.035-.278.071-.526.1-.751.124-.899.225-1.378.225-1.378s.16.503.384 1.331c.054.201.107.426.172.674.1.237.201.491.313.769.249.538.408 1.153.775 1.78.367.627.633 1.325 1.088 2.017.438.692.84 1.432 1.354 2.165a42.338 42.338 0 0 0 1.579 2.247 46.588 46.588 0 0 0 1.703 2.283c.556.781 1.189 1.509 1.762 2.26.598.745 1.177 1.478 1.745 2.188a310.699 310.699 0 0 1 3.146 3.886 94.029 94.029 0 0 1 3.039 3.945Zm-21.105 24.716s-2.093-.372-4.867-1.851c-.703-.349-1.431-.792-2.194-1.277-.739-.503-1.543-1.023-2.3-1.656-.745-.633-1.567-1.254-2.283-1.999-.762-.704-1.466-1.491-2.146-2.295-.704-.787-1.301-1.662-1.898-2.508-.633-.822-1.059-1.762-1.573-2.602-.527-.834-.84-1.751-1.219-2.567-.396-.805-.632-1.633-.863-2.384-.225-.751-.455-1.431-.562-2.058-.124-.627-.201-1.177-.266-1.626-.13-.905-.177-1.42-.177-1.42s.295.444.751 1.218c.225.391.508.858.792 1.402.284.544.704 1.112 1.077 1.763.39.638.792 1.336 1.277 2.04.491.698.934 1.473 1.49 2.212.556.739 1.076 1.532 1.685 2.277.615.745 1.171 1.55 1.839 2.271.615.757 1.26 1.497 1.922 2.195a61.111 61.111 0 0 0 1.952 2.07 91.954 91.954 0 0 0 3.69 3.495c2.241 1.999 3.873 3.3 3.873 3.3Zm-15.558 28.248s-2.088-.29-4.962-1.484c-.715-.308-1.508-.616-2.288-1.047-.799-.403-1.632-.84-2.454-1.372-1.674-1.006-3.353-2.266-4.92-3.662-.745-.751-1.538-1.443-2.206-2.247-.668-.793-1.342-1.562-1.881-2.401-.561-.817-1.105-1.603-1.496-2.437-.402-.822-.839-1.55-1.064-2.325a36.321 36.321 0 0 1-.668-2.046c-.16-.615-.213-1.183-.29-1.632a26.292 26.292 0 0 1-.172-1.414s.29.444.751 1.213c.219.378.485.845.793 1.372.355.502.751 1.064 1.147 1.685.373.633.958 1.213 1.431 1.899.473.686 1.124 1.301 1.691 2.011.556.721 1.301 1.325 1.934 2.034.657.692 1.402 1.331 2.093 2.011.74.645 1.473 1.29 2.2 1.923.763.591 1.449 1.259 2.2 1.803.733.562 1.431 1.136 2.123 1.645.686.514 1.331 1.005 1.934 1.455 2.466 1.81 4.104 3.016 4.104 3.016Z" fill="#039"/><path d="m560.953 273.928 2.141 4.335 4.784.698-3.459 3.372.816 4.767-4.282-2.248-4.275 2.248.816-4.767-3.46-3.372 4.784-.698 2.135-4.335ZM448.124 447.802l2.649 5.359 5.907.857-4.275 4.176 1.011 5.891-5.292-2.786-5.287 2.786 1.011-5.891-4.281-4.176 5.913-.857 2.644-5.359Zm6.392-21.824 1.277 2.584 2.857.414-2.07 2.017.491 2.845-2.555-1.349-2.555 1.349.491-2.845-2.069-2.017 2.856-.414 1.277-2.584Zm361.386 35.492 1.68 3.407 3.761.544-2.721 2.656.645 3.744-3.365-1.769-3.365 1.769.645-3.744-2.72-2.656 3.761-.544 1.679-3.407Zm37.243 44.737 1.319 2.68 2.957.431-2.135 2.082.503 2.946-2.644-1.39-2.643 1.39.503-2.946-2.141-2.082 2.957-.431 1.324-2.68Zm-158.493 25.758 1.318 2.679 2.957.432-2.135 2.082.503 2.945-2.643-1.39-2.644 1.39.503-2.945-2.141-2.082 2.957-.432 1.325-2.679Zm158.493-65.657 2.644 5.359 5.913.858-4.281 4.169 1.011 5.891-5.287-2.78-5.286 2.78 1.005-5.891-4.275-4.169 5.913-.858 2.643-5.359ZM493.267 211.933l2.283 4.619 5.103.745-3.696 3.596.876 5.081-4.566-2.396-4.559 2.396.869-5.081-3.69-3.596 5.098-.745 2.282-4.619Zm56.628 5.902 1.325 2.68 2.956.431-2.14 2.082.502 2.946-2.643-1.39-2.643 1.39.508-2.946-2.14-2.082 2.956-.431 1.319-2.68Zm-211.68 123.69 1.408 2.851 3.146.461-2.277 2.218.538 3.134-2.815-1.478-2.815 1.478.539-3.134-2.283-2.218 3.152-.461 1.407-2.851Zm-25.12 39.834 2.643 5.358 5.914.858-4.276 4.17 1.005 5.89-5.286-2.779-5.287 2.779 1.011-5.89-4.281-4.17 5.913-.858 2.644-5.358Zm29.124 22.759 1.945 3.945 4.353.632-3.152 3.07.745 4.341-3.891-2.052-3.897 2.052.745-4.341-3.152-3.07 4.352-.632 1.952-3.945Z" fill="#FFDB15"/><path d="M228.295 549.087c-23.051 0-41.738 7.683-41.738 17.152v15.372c0 9.481 18.687 17.152 41.738 17.152 23.063 0 41.749-7.671 41.749-17.152v-15.372c0-9.469-18.686-17.152-41.749-17.152Z" fill="#039"/><path d="M309.955 551.897c0-5.211-2.957-9.44-6.612-9.44-.366 0-.727.06-1.082.142v-.006l-.165.042c-.03.006-.066.012-.101.023l-53.275 12.941 10.284 19.471 45.25-13.822v-.006c3.217-.633 5.701-4.572 5.701-9.345Z" fill="#039"/><path d="M228.295 558.764c-16.546 0-29.958 5.518-29.958 12.313 0 6.796 13.412 12.297 29.958 12.297 16.558 0 29.97-5.501 29.97-12.297 0-6.795-13.412-12.313-29.97-12.313Z" fill="#A5A7AA"/><path d="M228.295 549.087c-23.051 0-41.738 7.683-41.738 17.152 0 9.47 18.687 17.135 41.738 17.135 23.063 0 41.749-7.665 41.749-17.135 0-9.469-18.686-17.152-41.749-17.152Zm0 27.728c-16.599 0-30.046-5.536-30.046-12.344 0-6.825 13.447-12.343 30.046-12.343 16.593 0 30.052 5.518 30.052 12.343 0 6.808-13.459 12.344-30.052 12.344Z" fill="#004EEA"/><path d="M204.966 571.977a2.306 2.306 0 0 1-1.573-3.993c.284-.266 7.173-6.588 17.9-7.274a2.308 2.308 0 0 1 1.166 4.37 2.295 2.295 0 0 1-.87.231c-9.03.58-14.997 5.997-15.056 6.05a2.311 2.311 0 0 1-1.567.616Zm27.202-9.416c0 1.313-1.36 2.371-3.039 2.371-1.674 0-3.034-1.058-3.034-2.371 0-1.307 1.36-2.366 3.034-2.366 1.679 0 3.039 1.059 3.039 2.366Z" fill="#fff"/></g><defs><linearGradient id="b" x1="299.198" y1="106.903" x2="340.25" y2="261.019" gradientUnits="userSpaceOnUse"><stop stop-color="#B3B3B3" stop-opacity=".102"/><stop offset="1" stop-color="#B3B3B3"/></linearGradient><linearGradient id="c" x1="392.077" y1="535.685" x2="390.99" y2="483.196" gradientUnits="userSpaceOnUse"><stop stop-color="#0061FF"/><stop offset="1" stop-color="#00E0FF"/></linearGradient><linearGradient id="d" x1="482.6" y1="523.035" x2="478.861" y2="469.127" gradientUnits="userSpaceOnUse"><stop stop-color="#0061FF"/><stop offset="1" stop-color="#00E0FF"/></linearGradient><linearGradient id="e" x1="520.889" y1="446.491" x2="518.266" y2="391.791" gradientUnits="userSpaceOnUse"><stop stop-color="#0061FF"/><stop offset="1" stop-color="#00E0FF"/></linearGradient><linearGradient id="f" x1="633.671" y1="488.275" x2="796.668" y2="449.435" gradientUnits="userSpaceOnUse"><stop stop-color="#0061FF"/><stop offset="1" stop-color="#00E0FF"/></linearGradient><linearGradient id="g" x1="727.679" y1="508.532" x2="729.264" y2="458.761" gradientUnits="userSpaceOnUse"><stop stop-color="#0061FF"/><stop offset="1" stop-color="#00E0FF"/></linearGradient><linearGradient id="h" x1="772.048" y1="492.805" x2="747.354" y2="460.351" gradientUnits="userSpaceOnUse"><stop stop-color="#0061FF"/><stop offset="1" stop-color="#00E0FF"/></linearGradient><linearGradient id="i" x1="328.234" y1="486.751" x2="324.841" y2="392.597" gradientUnits="userSpaceOnUse"><stop stop-color="#0061FF"/><stop offset="1" stop-color="#00E0FF"/></linearGradient><linearGradient id="j" x1="277.944" y1="552.415" x2="262.8" y2="481.915" gradientUnits="userSpaceOnUse"><stop stop-color="#0061FF"/><stop offset="1" stop-color="#00E0FF"/></linearGradient><linearGradient id="k" x1="279.269" y1="523.011" x2="254.581" y2="490.55" gradientUnits="userSpaceOnUse"><stop stop-color="#0061FF"/><stop offset="1" stop-color="#00E0FF"/></linearGradient><linearGradient id="l" x1="552.757" y1="413.043" x2="504.627" y2="330.093" gradientUnits="userSpaceOnUse"><stop stop-color="#0061FF"/><stop offset="1" stop-color="#00E0FF"/></linearGradient><linearGradient id="m" x1="572.686" y1="405.697" x2="486.418" y2="327.788" gradientUnits="userSpaceOnUse"><stop stop-color="#0061FF"/><stop offset="1" stop-color="#00E0FF"/></linearGradient><linearGradient id="n" x1="475.566" y1="344.391" x2="400.279" y2="262.736" gradientUnits="userSpaceOnUse"><stop stop-color="#0061FF"/><stop offset="1" stop-color="#00E0FF"/></linearGradient><linearGradient id="o" x1="499.9" y1="373.203" x2="435.031" y2="295.101" gradientUnits="userSpaceOnUse"><stop stop-color="#0061FF"/><stop offset="1" stop-color="#00E0FF"/></linearGradient><linearGradient id="p" x1="632.92" y1="473.382" x2="665.922" y2="350.937" gradientUnits="userSpaceOnUse"><stop stop-color="#0061FF"/><stop offset="1" stop-color="#00E0FF"/></linearGradient><linearGradient id="q" x1="812.206" y1="565.837" x2="771.333" y2="487.73" gradientUnits="userSpaceOnUse"><stop stop-color="#0061FF"/><stop offset="1" stop-color="#00E0FF"/></linearGradient><linearGradient id="r" x1="799.545" y1="565.979" x2="786.064" y2="508.231" gradientUnits="userSpaceOnUse"><stop stop-color="#0061FF"/><stop offset="1" stop-color="#00E0FF"/></linearGradient><linearGradient id="s" x1="556.246" y1="517.965" x2="541.073" y2="457.225" gradientUnits="userSpaceOnUse"><stop stop-color="#0061FF"/><stop offset="1" stop-color="#00E0FF"/></linearGradient><linearGradient id="t" x1="577.062" y1="499.755" x2="515.044" y2="445.316" gradientUnits="userSpaceOnUse"><stop stop-color="#0061FF"/><stop offset="1" stop-color="#00E0FF"/></linearGradient><linearGradient id="u" x1="532.935" y1="571.663" x2="522.281" y2="512.667" gradientUnits="userSpaceOnUse"><stop stop-color="#0061FF"/><stop offset="1" stop-color="#00E0FF"/></linearGradient><linearGradient id="v" x1="558.588" y1="553.606" x2="542.729" y2="492.227" gradientUnits="userSpaceOnUse"><stop stop-color="#0061FF"/><stop offset="1" stop-color="#00E0FF"/></linearGradient></defs></svg>