<svg viewBox="0 0 46 14" fill="none" xmlns="http://www.w3.org/2000/svg"><path fill-rule="evenodd" clip-rule="evenodd" d="M33.367 5.114c-.167.379-.323.814-.492 1.203l-.437 1.077c-.02.047-.035.081-.054.134l-.768 1.885c-.072.155-.15.381-.218.54-.123.293-.334.79-.44 1.073-.121.326-.305.738-.438 1.075l-.547 1.348c-.103.244-.134.275-.054.278l.148-.002c1.04.005 2.124-.013 3.152 0 .122 0 .169.019.201-.048l.09-.265c.064-.225.315-.915.407-1.204l.135-.398c.05-.148.05-.132.202-.131.274 0 1.58-.011 1.633.007h-.005l1.936-.016c.093 0 .61-.015.648.024.017.017.145.69.16.77l.237 1.14c.026.136.026.12.126.12h2.14c.243-.002.5.008.743.003.019-.036-.027-.016.116-.016.016-.096-.024-.106-.034-.198-.005-.056-.003-.056-.02-.109l-.045-.216c-.013-.045-.013-.06-.021-.11l-.105-.535c-.06-.235-.102-.511-.152-.75-.01-.045-.022-.062-.029-.102-.008-.04-.003-.043-.014-.093-.007-.034-.02-.069-.025-.095l-.1-.506c-.014-.113-.074-.333-.082-.416l-.067-.31c-.01-.038-.01-.073-.018-.115-.005-.031-.023-.07-.029-.102l-.207-1.039c-.015-.047-.011-.06-.017-.113-.006-.049-.02-.064-.029-.102-.01-.042-.006-.08-.016-.124-.011-.043-.022-.049-.029-.09l-.226-1.152c-.008-.046-.018-.057-.027-.097-.006-.021-.006-.058-.013-.1-.008-.044-.022-.07-.029-.104-.01-.051-.002-.054-.013-.103l-.279-1.337c-.03-.134-.033-.24-.077-.373l-.042-.195c-.01-.035-.01-.077-.018-.114-.008-.044-.018-.064-.027-.101-.011-.052-.023-.134-.038-.202l-.017-.09c-.036-.159-.112-.618-.155-.758-.01-.033-.01-.077-.014-.102-.005-.034-.022-.072-.03-.102l-.142-.698c-.005-.03-.005-.062-.016-.108-.048-.207-.078-.44-.135-.646-.01-.04-.007-.073-.016-.115-.012-.058-.022-.047-.032-.111l-.043-.22c-.02-.175-.077-.367-.109-.543l-.1-.479C39.327.641 39.312.5 39.276.37L39.245.26c-.042.03-.557.013-.647.013-.424 0-2.327-.024-2.531.023-.397.093-.635.248-.898.602-.019.025-.019.024-.034.05-.229.373-.195.395-.365.757l-.033.085c-.011.027-.007.012-.015.032l-.197.49c-.02.044-.031.08-.053.125-.076.161-.124.324-.2.486-.02.041-.03.076-.048.117-.02.045-.032.087-.05.128l-.2.487a.665.665 0 0 0-.023.059c-.009.025-.013.03-.025.058l-.198.489c-.017.04-.033.09-.052.126-.096.192-.157.41-.245.606-.02.044-.027.096-.063.12Zm1.755 3.849.012.012c.003-.003.007-.008.008-.006l.038-.01a.62.62 0 0 1 .071 0h2.057c.182 0 .366.003.548.001.096 0 .076-.026.047-.178-.04-.205-.113-.5-.143-.7-.008-.05-.02-.071-.029-.115l-.7-3.358c-.012-.043-.016-.075-.024-.119-.008-.048-.02-.072-.029-.114a6.092 6.092 0 0 1-.047-.237c-.008-.048-.02-.083-.027-.119-.013-.06-.005-.075-.061-.08-.037.16-.137.388-.186.55l-.905 2.577c-.04.11-.068.202-.111.315-.037.098-.074.196-.113.314-.1.307-.227.63-.328.939-.04.118-.106.254-.078.328ZM3.636 2.008c.08.015.261.288.3.36.015.03.014.024.029.055l.025.058c.188.449.27.91.397 1.405.024.095.05.169.07.263l.365 1.436.032.135.13.522c.025.096.047.168.068.265.02.088.053.186.07.26l.331 1.307c.05.174.085.355.132.532l.264 1.04c.038.169.094.342.132.522l.467 1.844c.026.088.044.163.066.255.104.43.235.886.335 1.315.042.183-.037.148.51.147.897-.001 1.815.009 2.706 0h.195c.052 0 .137-.007.202.003 0-.05.011-.051.032-.098.184-.432.361-.916.55-1.354.194-.45.397-.974.588-1.435l.588-1.436.146-.363 1.027-2.512c.182-.448.418-.993.588-1.436.177-.462.403-.968.588-1.436l.582-1.434c.003-.077.023-.093.042-.141l.342-.842.05-.127c.018-.048.03-.063.05-.117.013-.037.035-.09.05-.127l.241-.588-.02-.026c-.05.036-.34.013-.426.013h-2.907l-.068-.004c-.004 0-.007-.003-.01-.003-.003-.001-.008-.001-.01-.006-.002-.003-.006-.003-.009-.004-.055-.024-.084.018-.101.068l-.608 1.582c-.04.098-.072.194-.113.29l-.279.717c-.02.05-.037.103-.053.147-.094.265-.244.6-.334.862-.09.26-.237.592-.33.853l-.167.438c-.118.273-.326.834-.446 1.152l-.387.998c-.14.334-.302.794-.445 1.153-.037.094-.07.192-.109.282-.05.114-.186.51-.224.568-.037-.016-.03.001-.047-.041l-.187-1.012c-.067-.321-.112-.646-.175-.956-.01-.05-.019-.078-.027-.127l-.627-3.373c-.008-.042-.013-.095-.022-.133l-.252-1.35c-.01-.058-.02-.085-.028-.139a1.71 1.71 0 0 0-.024-.13c-.087-.397-.078-.636-.262-1.016-.036-.076-.098-.158-.112-.205l-.03-.035L7.04.815l-.027-.03c-.02-.022-.04-.039-.06-.058-.213-.211-.3-.267-.592-.378L6.237.313C5.887.208 5.221.25 4.902.25H.12C.082.308.038.572.038.654c.048.03.06.023.123.035L1.027.9c.388.1.794.238 1.174.382l.445.175c.082.032.151.057.218.088l.61.319c.05.035.147.084.162.144ZM22.718 1.835c-.01.03-.143.177-.174.22a3.908 3.908 0 0 0-.79 2.099l-.023.382c0 .297.052.62.133.902.12.415.392.872.688 1.178l.14.132c.048.05.074.1.158.172a8.91 8.91 0 0 0 1.605 1.071c.088.046.168.093.257.142.31.177 1.015.56 1.258.795.073.071.144.125.209.204l.09.11c.024.036.063.09.076.128.042.022.027 0 .068.11a.957.957 0 0 1 .05.438c-.057.364-.26.62-.539.815a2.061 2.061 0 0 1-.443.227 2.356 2.356 0 0 1-.516.14 4.989 4.989 0 0 1-1.202.03c-.036-.004-.227-.03-.261-.022l-.493-.065-.497-.122c-.044-.006-.044-.014-.074-.024-.039-.016-.031-.006-.076-.017l-.922-.343-.446-.223c-.05-.021-.026.018-.07.163-.02.063 0 .053-.038.175-.016.052-.017.123-.034.18l-.19.913c-.007.036-.005.06-.014.093-.025.106-.016.03-.038.175-.014.083-.018.016-.037.176-.009.073-.024.027-.04.178-.004.045-.012.055-.023.092-.026.084 0 .088-.036.179-.017.049-.023.135-.037.188l-.071.361c.05.036.14.06.198.081.071.027.106.049.203.076.055.016.084.034.156.046v.027c.478.121.94.286 1.453.36l.3.051c.072.014.164.018.257.032.098.014.217.025.309.035l.447.034c.028.002.073-.007.118-.004l.092.006h.006l.343.008c.031-.002.053.002.092-.001.058-.005.149.003.188-.007.055-.016.076.009.164-.001.197-.023.443-.035.658-.064a6.916 6.916 0 0 0 1.43-.33 5.67 5.67 0 0 0 1.072-.485l.087-.052c.352-.22.654-.462.942-.762l.178-.2c.033-.038.138-.191.179-.209.004-.038.015-.04.04-.076l.05-.069.174-.297a4.14 4.14 0 0 0 .34-.84c.089-.348.094-.425.144-.805.037-.281.013-.643-.016-.915-.016-.148-.046-.26-.08-.393-.033-.13-.075-.242-.116-.358l-.13-.282a4.185 4.185 0 0 0-.3-.466c-.037-.051-.068-.083-.105-.132-.076-.1-.107-.117-.169-.182l-.176-.177c-.092-.088-.352-.286-.38-.346l-.233-.17c-.308-.215-.486-.302-.783-.484-.088-.054-.171-.1-.261-.15-.5-.281-.83-.432-1.33-.77-.215-.148-.509-.41-.594-.665a.737.737 0 0 1-.037-.373.858.858 0 0 1 .12-.305c.032-.05.142-.215.193-.223.027-.058.055-.068.106-.105.114-.083.22-.146.357-.205.322-.14.553-.17.872-.2a5.959 5.959 0 0 1 1.39.073l.615.142c.199.052.387.121.577.185.098.033.173.064.27.102.04.017.085.041.128.06l.064.03c.028.016.034.016.073.017.027-.112.052-.229.075-.351.033-.182.518-2.396.518-2.47a2.726 2.726 0 0 0-.262-.1c-.025-.008-.04-.01-.062-.017l-.013-.004L30.283.5a.843.843 0 0 1-.025-.009c-.21-.078-.465-.138-.68-.197-.026-.007-.045-.013-.075-.019l-.108-.022c-.101-.03-.247-.044-.34-.067-.39-.096-1.554-.17-1.824-.15-.293.022-.563.021-.868.06l-.684.12c-.1.024-.188.041-.284.066-.48.125-1.09.37-1.497.61l-.628.428c-.035.028-.06.055-.094.082-.02.017-.029.024-.05.044l-.408.388ZM20.819.28c0-.091-.111-.062-.188-.062h-.198c-.47.005-2.959-.01-3 .003-.073.024-.068.154-.088.235-.043.172-.07.364-.113.54l-.112.541c-.02.068-.044.198-.057.266l-.252 1.218c-.01.048-.014.092-.027.14-.066.253-.16.778-.225 1.078l-.223 1.071c-.06.266-.16.844-.224 1.082l-.276 1.328c-.01.06-.015.085-.029.136l-.141.679-.055.265-.138.668c-.012.04-.016.094-.026.142l-.2.938c-.01.051-.018.105-.026.14l-.086.4c-.009.038-.015.099-.026.141l-.506 2.417c-.031.138.042.11.202.11.272 0 3.155.01 3.194-.005.069-.026.06-.163.082-.243.035-.13.054-.27.085-.401l.276-1.352c.05-.28.142-.636.198-.942l.502-2.428c.019-.105.036-.166.053-.27l.225-1.079c.018-.084.044-.19.06-.272.105-.556.228-1.078.335-1.623.037-.19.072-.354.114-.539l.109-.533c.036-.185.068-.365.111-.54l.111-.541c.073-.278.152-.77.225-1.082l.11-.54c.061-.254.114-.55.167-.81.008-.045.057-.235.057-.276Z" fill="#fff"/><path fill-rule="evenodd" clip-rule="evenodd" d="M20.602 1.18c-.018-.041.019-.186.03-.238l.097-.473c.01-.038.057-.168.02-.19-.021-.013-1.98-.006-2.178-.006-.022 0-1.066.012-1.076-.013-.002-.004-.007-.003-.01-.004l-.05-.011c-.05.078-.071.266-.101.399-.123.553-.23 1.126-.351 1.69L16.719 3.6c-.073.342-.134.698-.216 1.041l-.09.422c-.014.083-.028.134-.043.218-.013.073-.027.131-.043.207l-.062.317c-.045.219-.125.543-.157.745l-.132.629a8.894 8.894 0 0 0-.041.206l-.266 1.267c-.032.144-.053.277-.085.424l-.134.626c-.009.039-.011.07-.02.111-.008.036-.018.067-.025.105l-.784 3.795c.054.03.128.017.188.017h2.874c.337.002.32.034.348-.113l.137-.67c.013-.059.02-.068.03-.136l1.848-8.93c.04-.177.068-.363.112-.54.045-.182.07-.356.112-.54l.165-.808c.023-.135.166-.737.167-.814ZM35.887 11.686c-.053-.018-1.359-.006-1.633-.007-.153-.001-.153-.017-.202.131l-.135.398c-.092.289-.344.98-.407 1.204l-.09.265c-.032.067-.079.049-.201.048-1.028-.013-2.112.005-3.152 0l-.148.002c-.08-.003-.05-.034.053-.278l.548-1.348c.133-.337.317-.749.438-1.075.106-.284.317-.78.44-1.073.067-.159.146-.385.218-.54l.768-1.885a2.51 2.51 0 0 1 .054-.134l.437-1.077c.169-.39.325-.824.492-1.203.017-.088.494-1.232.58-1.452.033-.082.067-.155.102-.24.182-.447.399-1.022.588-1.45.021-.047.03-.075.048-.115.09-.194.155-.397.257-.61.236-.5.556-.835 1.06-.958a2.67 2.67 0 0 1 .585-.044h2.674c.036.07.108.467.137.607.068.331.157.734.213 1.056.025.14.058.276.085.415.026.136.061.298.09.423l.167.85c.007.036.02.074.026.096.069.361.18.824.235 1.165.01.067.025.138.04.209l.476 2.312c.03.135.064.286.087.425.042.254.115.577.17.849l.517 2.525c.086.369.165.88.256 1.263l.212 1.056c.013.073.04.146.043.22-.036.019-.093.018-.143.01-.243.006-.5-.004-.742-.001h-2.141c-.1 0-.1.014-.126-.122l-.237-1.138c-.015-.082-.143-.754-.16-.77-.038-.04-.555-.025-.648-.025l-1.936.016.014.013c.04.024.1.01.148.01h1.46c.056-.001.114-.006.16-.003l.446.007c.027.004 0 .002.02.001l.222-.009c.13.001.099.03.148.275.051.252.092.518.161.766l.182.897c.015.082.013.057.047.108 1.018 0 2.038.01 3.057 0 .077 0 .1.01.1-.082-.032-.016-.01.022-.026-.04-.007-.027-.006-.048-.011-.074-.011-.052-.02-.075-.03-.136-.042-.28-.164-.76-.216-1.066l-.055-.265c-.015-.046-.019-.082-.026-.128l-.081-.407c-.017-.09-.037-.172-.055-.266-.05-.264-.122-.534-.162-.798l-.08-.396c-.008-.045-.023-.08-.031-.134-.027-.183-.079-.364-.107-.547l-.441-2.133c-.01-.043-.013-.09-.023-.132a1.068 1.068 0 0 1-.029-.138l-.27-1.332c-.012-.05-.02-.072-.027-.127l-.084-.416c-.007-.043-.02-.076-.029-.124-.035-.229-.09-.447-.135-.671l-.19-.928c-.01-.046-.017-.103-.026-.141-.02-.094-.034-.174-.055-.276l-.11-.53c-.028-.172-.078-.36-.112-.53-.009-.047-.012-.087-.023-.132L39.312.324c-.035-.128-.07-.1-.167-.1-.523.005-2.74-.026-2.95.012-.244.044-.488.1-.691.256-.31.236-.508.573-.663.93-.068.154-.115.3-.185.454-.12.263-.22.533-.323.8-.102.262-.227.532-.327.798-.029.074-.061.151-.093.227l-1.21 2.968a5.86 5.86 0 0 1-.091.228l-.278.68c-.03.07-.065.152-.093.227-.03.082-.062.153-.092.226-.221.53-.422 1.073-.652 1.597-.132.304-.246.612-.373.918-.06.144-.124.31-.184.455l-.184.452c-.031.076-.059.153-.092.23-.101.232-.195.447-.281.688-.084.232-.191.454-.279.68l-.183.457c-.025.066-.096.18-.074.232.05.055 3.021-.01 3.498.013.097.005.1-.055.129-.142L34 12.04c.028-.075.074-.264.12-.318.02-.023.055-.016.076-.015.114.005.225 0 .339.002.229.004.441 0 .672 0l.623.002c.015-.001.008.002.022-.003.031-.012.013-.004.035-.022ZM7.117.884c.014.047.075.13.112.205.184.38.175.619.262 1.016.01.043.017.082.024.13.008.054.018.081.027.14l.253 1.349c.01.038.014.09.021.133l.628 3.373c.008.05.018.077.027.127.063.31.108.635.175.956l.187 1.012c.018.042.01.025.047.041.038-.059.175-.454.224-.568.04-.09.072-.188.109-.282.143-.359.305-.819.445-1.153l.387-.998c.12-.318.328-.879.446-1.152l.166-.438c.094-.261.242-.593.33-.853.091-.262.241-.597.335-.862.016-.044.033-.097.053-.147l.28-.717c.04-.097.072-.192.112-.29l.608-1.582c.017-.05.046-.092.101-.068.013-.01.003-.006.028-.013l.081-.004c.565.006 3.319-.012 3.343.006l.006.005.027.013c-.014.077-.114.29-.153.388-.015.038-.03.069-.049.118-.067.17-.127.327-.197.488l-.392.949c-.017.025.005.002-.02.022l-.582 1.434c-.184.468-.41.974-.587 1.436-.17.443-.406.988-.588 1.436l-1.027 2.512-.146.363-.588 1.436c-.19.461-.394.984-.588 1.435-.189.438-.367.922-.55 1.354-.02.046-.033.048-.032.098.028-.016-.002.01.021-.017.002-.002.013-.02.015-.02.04-.07.124-.301.15-.372.059-.157.113-.262.173-.42l.171-.42c.163-.424.346-.836.514-1.26l.604-1.478c.032-.073.059-.14.087-.21.028-.069.056-.127.086-.209l1.81-4.426c.127-.311.268-.627.384-.941.017-.046.027-.066.045-.11l.175-.43c.134-.355.284-.69.428-1.05l.779-1.894c.016-.043.074-.152.074-.195 0-.036-.004-.049-.04-.06h-3.507c-.072.015-.077.096-.11.173l-.399 1.033c-.121.274-.213.564-.323.838L11.161 3.4c-.01.028-.01.027-.02.05l-.3.776c-.116.27-.216.552-.32.83l-.042.111c-.026.07-.052.135-.08.204l-.022.05-1.345 3.484c-.036.09-.114.332-.162.406-.034-.055-.138-.69-.156-.79-.013-.074-.035-.202-.05-.27-.022-.083-.037-.182-.05-.26l-.15-.81c-.028-.21-.09-.447-.122-.661-.05-.322-.125-.623-.176-.94l-.198-1.072c-.06-.33-.125-.739-.203-1.069l-.05-.269c-.017-.107-.03-.169-.047-.275-.031-.176-.074-.356-.099-.53-.038-.268-.123-.591-.154-.808a.624.624 0 0 0-.029-.126c-.008-.026-.009-.038-.016-.067-.023-.101-.072-.201-.116-.289L7.17.926c-.03-.041-.011-.024-.052-.042ZM29.238 11.829c-.04.017-.146.17-.179.209l-.178.2c-.288.3-.59.54-.942.76l-.087.053a5.68 5.68 0 0 1-1.071.485 6.915 6.915 0 0 1-1.431.33c-.215.03-.46.041-.658.064-.088.01-.11-.015-.164 0-.04.01-.13.003-.189.008-.038.003-.06 0-.092 0l-.343-.007H23.9l-.092-.006c-.045-.003-.09.006-.118.004l-.447-.034c-.092-.01-.212-.02-.309-.035-.094-.014-.186-.018-.258-.032l-.3-.05c-.511-.075-.974-.24-1.452-.361-.112-.02-.28-.1-.402-.14-.05-.018-.162-.045-.173-.092l.508-2.457c.015-.078.034-.15.046-.228.012-.075.04-.134.04-.218.077.002.218.099.299.137a7.299 7.299 0 0 0 1.962.635c.055.01.093.016.154.025.055.007.08.003.126.02l.018.009c.035-.008.226.018.262.021.415.039.787.03 1.202-.028.182-.027.348-.077.515-.141.166-.064.309-.133.444-.228.28-.193.482-.45.54-.814a.957.957 0 0 0-.051-.438c-.04-.11-.027-.088-.068-.11.013.099.228.41-.02.89a.856.856 0 0 1-.108.163 1.501 1.501 0 0 1-.533.418c-.32.162-.638.228-.993.263-.044.005-.07.013-.122.014a7.016 7.016 0 0 1-1.249-.07c-.08-.01-.096-.016-.182-.03l-.192-.035-.853-.236c-.38-.143-.397-.145-.775-.315-.106-.048-.319-.172-.375-.173-.03.051-.3 1.344-.313 1.432-.014.09-.028.124-.042.208-.012.086-.03.127-.041.207l-.13.618c-.034.132-.059.282-.089.41-.02.087.02.094.095.125.2.084.601.221.816.284.038.01.066.012.103.024.061.021.133.037.192.054.356.103.684.152 1.032.216l.723.093c.087.003.135.003.21.013.07.008.037.017.186.021.165.007.948.015 1.093-.002.06-.007.027-.017.104-.021.076-.005.122-.004.167-.009.086-.008.104-.013.192-.027.064-.01.167-.012.206-.02.056-.01.104-.02.186-.03a.847.847 0 0 0 .1-.019c.092-.024.264-.034.473-.098.06-.018.132-.037.192-.054a6.14 6.14 0 0 0 1.074-.4l.478-.26c.054-.033.098-.065.15-.098l.424-.316.612-.624c.057-.073.097-.101.102-.158Z" fill="#fff"/><path fill-rule="evenodd" clip-rule="evenodd" d="M33.367 5.114c.037-.025.044-.077.064-.12.088-.197.148-.415.245-.607.018-.037.034-.086.052-.126l.198-.489c.011-.027.016-.033.025-.058a.634.634 0 0 1 .023-.059l.2-.487c.018-.041.03-.083.05-.128.018-.041.028-.076.048-.117.075-.162.124-.325.2-.486.021-.046.033-.081.052-.125l.197-.49c.01-.02.005-.005.015-.032l.034-.085c.17-.362.136-.384.365-.758.015-.025.015-.024.034-.049.263-.354.5-.51.898-.602.204-.047 2.107-.023 2.531-.023.09 0 .605.018.647-.013l.032.109c.036.13.051.272.073.367l.101.479c.032.176.088.368.109.544l.043.219c.01.064.02.053.032.11.009.043.005.077.016.116.057.206.087.438.135.646.01.046.01.078.016.108l.142.698c.007.03.025.068.03.102.003.025.003.07.014.102.043.14.119.6.154.758.005.025.01.057.018.09.015.068.026.15.038.202.009.037.02.057.027.101.008.037.008.08.018.114l.041.194c.045.135.048.24.078.374l.279 1.337c.011.05.003.052.013.103.007.034.021.06.03.104.006.042.006.079.012.1.008.04.019.051.027.097l.226 1.152c.006.041.018.047.028.09.011.044.007.082.017.124.01.038.023.053.029.102.006.054.002.066.017.113l.207 1.04c.006.031.024.07.03.1.007.043.006.078.017.115l.067.311c.008.083.068.303.082.416l.1.506c.005.026.018.06.025.095.01.05.006.054.014.093.007.04.02.057.028.102.05.239.093.515.152.75l.105.536c.009.048.009.064.022.11l.045.215c.017.053.015.053.02.109.01.092.05.102.034.198-.144 0-.097-.02-.116.016.05.007.107.008.143-.011-.002-.074-.03-.147-.043-.22l-.212-1.056c-.091-.383-.17-.894-.256-1.263l-.517-2.525c-.055-.272-.128-.595-.17-.85-.023-.138-.058-.289-.087-.424l-.476-2.312a4.018 4.018 0 0 1-.04-.209c-.055-.34-.166-.804-.235-1.165-.006-.022-.019-.06-.026-.097l-.167-.85c-.03-.124-.065-.286-.09-.422-.028-.14-.06-.274-.085-.415-.056-.322-.145-.725-.213-1.056-.03-.14-.1-.537-.137-.607h-2.674a2.67 2.67 0 0 0-.585.044c-.504.123-.824.458-1.06.958-.102.213-.168.416-.257.61-.018.04-.027.068-.049.116-.189.427-.405 1.002-.587 1.45-.035.084-.07.157-.102.24-.087.219-.563 1.363-.58 1.45ZM22.718 1.835l.407-.388.051-.044c.034-.027.058-.054.094-.082l.628-.427a6.456 6.456 0 0 1 1.497-.611c.096-.025.184-.042.283-.066l.684-.12c.306-.039.576-.038.868-.06.27-.02 1.434.054 1.825.15.093.023.239.038.34.067l.108.022c.03.006.049.012.074.019.216.058.471.12.68.197a.754.754 0 0 0 .025.01l.015.005.013.004c.021.007.037.01.062.017.092.03.177.063.261.1 0 .074-.484 2.288-.518 2.47-.023.122-.047.239-.074.351-.04 0-.045-.001-.073-.017l-.064-.03c-.043-.019-.087-.043-.129-.06-.096-.038-.171-.07-.27-.102-.19-.064-.378-.133-.577-.185l-.614-.142a5.957 5.957 0 0 0-1.39-.074c-.32.031-.55.06-.873.2-.137.06-.242.123-.357.206-.05.037-.078.047-.105.105.049-.011.03-.009.064-.037.135-.112.252-.176.418-.25.021-.01.036-.015.066-.026l.21-.07c.293-.078.598-.116.892-.113.125.002.372.01.514.019.144.008.558.07.705.098.187.034.3.073.463.111l.213.065c.138.048.346.106.497.17l.142.055c.062.028.206.107.287.108.051-.236.156-.668.189-.884.011-.071.027-.1.04-.174.062-.363.195-.86.262-1.257.02-.12.113-.469.113-.544a1.72 1.72 0 0 0-.414-.163L29.917.36a6.462 6.462 0 0 0-.802-.194c-.278-.045-.858-.138-1.094-.14-.152 0-.264-.022-.465-.026-.198-.004-.39.005-.586.005-.002.035.008.01-.019.011h-.004L26.89.02l-.887.1a6.936 6.936 0 0 0-1.074.279l-.147.052a5.328 5.328 0 0 0-1.437.779l-.587.533c-.035.035-.035.023-.04.073ZM10.462 13.732c-.065-.01-.15-.002-.202-.002-.066 0-.13-.002-.195 0-.891.008-1.81-.002-2.706 0-.547 0-.468.035-.51-.148-.1-.43-.231-.884-.336-1.315-.022-.092-.04-.167-.065-.255l-.468-1.844c-.038-.18-.093-.353-.131-.522l-.265-1.04c-.046-.177-.082-.358-.131-.532l-.33-1.307c-.019-.074-.052-.172-.072-.26-.02-.097-.042-.169-.068-.265l-.13-.522-.031-.135-.366-1.436c-.02-.094-.045-.168-.07-.263-.126-.496-.209-.956-.396-1.405a1.396 1.396 0 0 0-.026-.058c-.014-.03-.013-.025-.028-.054-.039-.073-.22-.346-.3-.361.001.05-.004.015.061.08.058.057.15.18.189.247l.136.288c.015.047.025.062.038.114l.124.457c.04.157.076.316.118.464.022.077.038.152.057.226l.117.464c.049.22.132.487.178.7l.474 1.864c.012.04.015.073.027.115.074.28.188.785.27 1.047.05.168.108.471.174.703.011.04.017.073.027.113l.076.294c.004.023.012.043.02.064l.232.929c.01.044.02.074.03.112l.147.579c.02.069.041.165.059.236l.177.687c.011.048.016.08.028.116l.441 1.754c.033.122.065.096.204.096h3.29c.066 0 .117.011.132-.025Z" fill="#fff"/><path fill-rule="evenodd" clip-rule="evenodd" d="M3.636 2.008c-.015-.06-.112-.109-.163-.144l-.609-.32c-.067-.03-.136-.055-.218-.087L2.2 1.282C1.821 1.138 1.414 1 1.026.9L.161.69C.097.677.086.683.038.654.038.572.082.308.12.251h4.782c.318 0 .985-.043 1.335.062l.124.036c.292.111.38.167.594.378l.059.057.027.03.045.035C7.073.78 7.063.811 7.01.741a1.639 1.639 0 0 0-.298-.255c-.317-.21-.67-.264-1.015-.261L3.43.224c-.609-.005-1.199-.001-1.81 0L.16.224c-.103 0-.085.048-.122.23C.031.48.031.507.027.537.017.606.015.596 0 .603 0 .67-.005.668.04.688c.043.02.085.016.135.03C.26.74.352.76.427.78c.322.08.66.15.98.26l.36.118.123.041c.346.118.815.302 1.141.45l.41.225c.038.023.062.042.096.068.032.023.063.057.099.066ZM35.122 8.963c-.028-.074.039-.21.078-.328.101-.31.229-.632.328-.939a6.81 6.81 0 0 1 .113-.314c.043-.113.071-.206.111-.315l.905-2.577c.049-.162.149-.39.186-.55.056.005.048.02.06.08.009.036.02.071.028.12.014.08.028.144.047.236.009.042.02.066.03.114.007.044.01.076.023.119l.7 3.358c.01.044.02.065.028.115.031.2.103.495.144.7.029.152.05.177-.047.178-.182.002-.366 0-.548 0H35.25a.62.62 0 0 0-.07-.002l-.039.011c0-.002-.005.003-.008.006h2.806c.02-.094-.012-.189-.041-.322-.024-.11-.042-.216-.069-.323l-.33-1.592c-.016-.054-.02-.105-.032-.158l-.108-.473c-.005-.043-.002-.053-.01-.086-.01-.038-.017-.044-.024-.071-.05-.207-.099-.58-.16-.812l-.069-.313c-.008-.063-.028-.094-.037-.152l-.068-.323c-.015-.054-.003-.08-.032-.17-.055-.18.01-.277-.12-.28-.02.044-.041.114-.057.159l-.366 1.043c-.018.04-.017.046-.025.08-.003.02-.02.05-.027.069-.07.185-.168.506-.242.682-.014.034-.016.046-.026.08l-.083.25c-.01.037-.016.04-.03.077l-.086.243c-.01.035-.018.05-.028.08l-.056.158a.758.758 0 0 1-.027.079c-.075.186-.167.5-.257.725l-.1.28c-.069.226-.14.393-.203.59l-.06.165c-.01.03-.148.353-.045.303ZM15.15 2.228c.025-.02.003.003.02-.022l.392-.949c.07-.161.13-.319.197-.488.02-.05.034-.08.05-.118.038-.097.138-.311.151-.388L15.934.25l-.006-.005c-.024-.018-2.778 0-3.343-.006l-.08.004c-.026.007-.016.004-.029.013.003.001.007 0 .01.004 0 .005.006.005.009.006l.01.003.068.004h2.907c.086 0 .375.023.426-.013l.02.026-.24.588c-.016.036-.038.09-.052.127-.02.054-.032.069-.05.117l-.049.127-.342.842c-.02.048-.04.064-.042.141ZM29.238 11.829c.056-.026.118-.146.154-.2a4.12 4.12 0 0 0 .417-.884 3.21 3.21 0 0 0 .104-.382c.021-.122.061-.263.074-.402.007-.07.016-.145.027-.222a3.744 3.744 0 0 0-.052-1.113c-.007-.03-.01-.067-.018-.101-.01-.045-.018-.049-.027-.092a3.024 3.024 0 0 0-.265-.681 3.89 3.89 0 0 0-.817-1.011l-.006-.005c-.066-.057-.251-.228-.315-.246.027.06.288.258.38.346l.176.177c.062.065.093.082.169.182.037.05.068.08.106.132.11.148.21.303.299.466l.13.282c.041.116.083.229.116.358.034.134.064.245.08.393.029.272.053.634.016.915-.05.38-.055.457-.144.805a4.13 4.13 0 0 1-.34.84l-.175.297c-.013.021-.032.046-.048.07-.026.035-.037.037-.041.075ZM20.601 1.18l.012-.019c.02-.041.085-.397.094-.445l.071-.343.015-.061c.004-.026.008-.042-.009-.06C20.757.226 18.172.24 17.757.24l-.243.004c-.026.007-.015.004-.028.013.002.001.007 0 .008.004.011.026 1.055.013 1.077.013.197 0 2.157-.007 2.177.005.038.023-.009.153-.02.19l-.097.474c-.01.052-.047.197-.03.237ZM20.923 13.417v-.027c-.072-.012-.101-.03-.156-.046-.098-.027-.132-.049-.203-.076-.059-.022-.147-.045-.198-.08l.071-.362c.014-.053.02-.14.037-.188.036-.09.01-.095.036-.179.011-.037.019-.047.023-.092.016-.152.031-.105.04-.178.019-.16.023-.093.037-.177.021-.145.013-.068.038-.174.008-.032.006-.057.014-.093l.19-.914c.017-.056.018-.127.034-.18.037-.12.019-.11.038-.174.043-.145.02-.184.07-.163l.446.223.921.343c.045.011.038.001.077.016.03.011.03.019.074.025l.497.122.492.065-.018-.01c-.046-.016-.07-.012-.127-.02a9.066 9.066 0 0 1-.515-.096 7.3 7.3 0 0 1-1.6-.563c-.08-.038-.222-.135-.3-.137 0 .084-.027.143-.039.218-.012.078-.03.15-.046.228l-.508 2.457c.011.047.123.074.173.091.123.04.29.122.402.14Z" fill="#fff"/></svg>