<svg xmlns="http://www.w3.org/2000/svg" xml:space="preserve" width="149" height="161" style="shape-rendering:geometricPrecision;text-rendering:geometricPrecision;image-rendering:optimizeQuality;fill-rule:evenodd;clip-rule:evenodd" viewBox="0 0 5.24 5.66"><defs><style>.fil1{fill:#fff;fill-rule:nonzero}</style></defs><g id="Camada_x0020_1"><g id="_2975512983568"><path d="M3.27.29a2.62 2.62 0 0 1 1.97 2.54c0 1.22-.84 2.25-1.97 2.54v-.34a2.3 2.3 0 0 0 1.65-2.2c0-1.05-.7-1.93-1.65-2.21V.29zm-1.3 5.08A2.628 2.628 0 0 1 0 2.83C0 1.6.84.58 1.97.29v.33C1.02.9.32 1.78.32 2.83c0 1.04.7 1.92 1.65 2.2v.34z" style="fill:#fff"/><path class="fil1" transform="rotate(-23 7.054 -1.266) scale(1.77154)" d="M0 0h1.6v.13H0z"/><path class="fil1" transform="rotate(48 .97 3.065) scale(1.77154)" d="M0 0h1.01v.13H0z"/><path class="fil1" transform="rotate(56 -1.993 2.434) scale(1.77154)" d="M0 0h1.6v.13H0z"/><path class="fil1" transform="rotate(-51 6.65 -.2) scale(1.77153)" d="M0 0h.86v.13H0z"/><circle class="fil1" cx="3.67" cy="1.65" r=".45"/><circle class="fil1" cx="3.67" cy="3.93" r=".45"/><circle class="fil1" cx="1.07" cy="2.78" r=".45"/><circle class="fil1" cx="2.62" cy="5.21" r=".45"/><circle class="fil1" cx="2.62" cy=".45" r=".45"/></g></g></svg>