<svg width="30" height="30" fill="none" xmlns="http://www.w3.org/2000/svg"><path fill-rule="evenodd" clip-rule="evenodd" d="m5.831 20.85.16.16.159.143.143.16.16.143.143.16.16.143.143.143.159.16.143.143.144.16.159.143.143.16.16.143.143.143.16.16.143.143.143.16.16.143.143.16.16.143.143.143.159.16.143.143.144.16.159.143.143.16.16.143.143.143.143.16.16.143.143.16.16.143.143.144.16.16.143.142.143.16.16.143.143.16.159.143.143.16.16.143.143.144.143.159.16.143.143.16.16.143.143.144.16.16.143.143.143.16.16.143.143.159.159.143.143.144.16.16.143.143.143.16.16.143.143.159.16.143.143.128.287-.271.143-.16.16-.143.143-.16.16-.143.143-.16.159-.143.143-.143.144-.16.159-.143.143-.16.16-.143.143-.16.16-.143.143-.143.143-.16.16-.143.143-.16.16-.143.142-.143.16-.16.143-.143.144-.16.159-.143.143-.16.16-.143.143-.16.16-.143.143-.143.143-.16.16-.143.143-.16.16-.143.143-.143.159-.16.143-.143.144-.16.159-.143.143-.16.16-.143.143-.143.16-.16.143-.143.143-.16.16-.143.143-.16.16-.143.143-.144.143-.159.175-.143 1.498-1.515-3.346-3.395c-.988.877-1.944 1.945-2.9 2.885-.589.59-2.357 2.503-2.915 2.806l-5.8-5.723c-1.05 1.004-2.453 2.375-3.377 3.427ZM14.705.287l-.143.143-.16.16-.143.143-.16.144-.143.16-.143.143-.16.159-.143.143-.16.16-.143.143-.143.16-.16.143-.143.144-.159.16-.143.143-.16.159-.143.143-.16.144-.143.16-.143.143-.16.16-.143.143-.16.159-.143.143-.159.144-.143.16-.144.143-.159.16-.143.143-.16.16-.143.143-.16.143-.143.16-.143.143-.16.16-.143.143-.16.16-.143.143-.143.143-.16.16-.143.143-.159.16-.143.143-.16.16-.143.143-.143.143-.16.16-.143.143-.16.16-.143.143-.16.16-.143.143-.143.143-.16.16-.143.143-.159.16-.143.143-.16.16-.143.159L9 12.402l.192.207 5.751-5.818c1.227 1.02 4.047 4.128 5.91 5.77l3.299-3.38-.144-.175-.159-.159-.143-.143-.144-.16-.159-.143-.143-.16-.16-.143-.143-.144-.16-.16-.143-.143-.16-.159-.143-.143-.143-.144-.16-.16-.143-.143-.159-.16-.143-.143-.144-.159-.159-.144-.143-.159-.16-.143-.143-.144-.16-.16-.143-.143-.143-.16-.16-.143-.143-.159-.16-.143-.143-.144-.143-.16-.16-.143-.143-.16-.159-.143-.143-.16-.16-.143-.143-.143-.143-.16-.16-.143-.143-.16-.16-.143-.143-.16-.16-.143-.143-.143-.159-.16-.143-.143-.144-.16-.16-.143-.143-.143-.159-.16-.143-.143-.144-.16-.159-.143-.143-.16-.16-.143-.143-.16-.16-.143-.143-.143-.143-.16-.16-.143-.27-.287-.16.143-.159.144Z" fill="#fff"/><path fill-rule="evenodd" clip-rule="evenodd" d="m11.63 14.968 3.33 3.411 3.441-3.331c-.35-.399-2.851-2.965-3.345-3.443l-3.426 3.363ZM0 15c.988 1.052 2.358 2.47 3.394 3.395l3.361-3.363-3.377-3.411C2.262 12.752 1.13 13.868 0 15ZM26.51 18.3l.112.095.24-.239.143-.16.159-.143.143-.143.16-.16.143-.143.16-.16.143-.143.143-.16.16-.143.143-.143.16-.16.143-.143.159-.16.143-.143.144-.16.16-.143.142-.143.16-.16.143-.143.16-.16L30 15l-.287-.287-.143-.16-.16-.143-.143-.16-.16-.143-.143-.143-.143-.16-.16-.143-.143-.16-.16-.143-.143-.143-.159-.16-.143-.143-.144-.16-.159-.143-.143-.16-.16-.143-.143-.16-.16-.143-.143-.143-.223-.24-.095.096L23.277 15l3.234 3.3Z" fill="#fff"/></svg>