<svg width="22" height="30" fill="none" xmlns="http://www.w3.org/2000/svg"><path fill-rule="evenodd" clip-rule="evenodd" d="M8.55 16.07c.42-.14 1.92-.14 2.38-.12.679.02 1.518.1 2.138.26 1.159.259 2.838.859 3.138 2.598.14.879-.12 1.479-.62 1.958-1.24 1.16-4.197 1.4-5.856 1.32h-.56c-.18-.02-.38-.04-.56-.04l-.06-5.977Zm.02-8.255c.36-.14 1.68-.18 2.06-.16 1.778.04 4.096.46 4.356 2.578.3 2.379-2.638 2.838-4.437 2.978-.38.02-1.699.1-1.958 0l-.02-5.396ZM5.734 4.577l-5.717.04.02 2.838c.38.04.84.04 1.22.06.3.02 1.319.04 1.558.08.26.06.52.26.66.52.22.34.16.939.16 1.339 0 1.699-.04 3.397-.02 5.096v2.559c-.02.839 0 1.698 0 2.558 0 .38.06 1.579-.1 1.879-.08.18-.14.28-.34.44-.38.3-.88.2-1.299.2-.28 0-1.06-.04-1.259 0l.08 2.977 5.017.14v4.657l2.698.02.02-4.517 2.258.12.06 4.417 2.698-.04-.06-4.437c2.279-.1 5.577-.7 7.256-2.418.42-.44.52-.58.78-1.06.059-.08.099-.14.139-.22.06-.18.12-.34.18-.52.56-1.818.14-5.356-1.899-6.635a3.64 3.64 0 0 0-1.459-.6c-.12-.02-.5-.04-.56-.08.64-.38.98-.719 1.38-1.199l.58-.899c.18-.3.379-1.12.439-1.499.26-1.899-.58-3.657-2.159-4.677l-.76-.42c-.759-.28-.998-.46-2.118-.64-.42-.06-1.459-.199-1.879-.139L13.347.1 10.69 0l-.06 4.437-2.158.1L8.27 0 5.673.1c-.06.1 0 .9 0 1.1 0 .439.04 3.177.06 3.377Z" fill="#fff"/></svg>