<svg width="19" height="30" fill="none" xmlns="http://www.w3.org/2000/svg"><path d="m9.196 2.492-.047-.046.862-.7.023.07.024.024-.862.652Zm.838-.675h.024v.023l-.024-.023Zm.07.093-.931.582V2.47l-.024-.023h.024-.024l.909-.606h.023v.047h.023v.046-.023Zm-.931.582V2.47v.023Zm.885 1.398-.885-1.398.931-.582.885 1.42-.931.583V3.89Zm0 .023V3.89v.023Zm1.863.932-.908.582-.047-.047-.023-.046-.024-.047-.046-.046-.023-.047-.024-.07-.046-.046-.024-.047-.023-.047-.023-.046-.047-.047-.023-.046-.023-.047-.024-.046-.046-.047-.024-.047-.023-.046-.023-.047-.047-.046-.023-.047-.023-.047-.024-.046-.046-.047-.024-.046-.023-.047-.023-.046-.047-.047-.023-.047-.023-.046-.024-.047-.046-.046-.023-.047.931-.582.024.046.023.047.046.046.024.047.023.047.023.046.047.047.023.046.024.047.046.047.023.046.024.047.023.046.047.047.023.046.023.047.023.047.047.046.023.07.024.047.023.046.023.047.047.046.023.047.023.047.024.046.046.047.024.046.023.047.046.047.024.046.023.047Zm.955 1.514-.932.582-.023-.047-.047-.046-.023-.047-.023-.046-.047-.047-.023-.047-.023-.046-.024-.07-.046-.047-.023-.046-.024-.047-.023-.046-.047-.047-.023-.046-.023-.047-.047-.047-.023-.046-.023-.047-.024-.046-.023-.047-.047-.047-.023-.046-.023-.047-.024-.046-.046-.047-.023-.046-.024-.047-.023-.047-.046-.046-.024-.047-.023-.046-.023-.047.908-.582.023.046.047.047.023.046.023.047.047.047.023.046.024.047.023.046.046.047.024.047.023.046.023.047.047.046.023.047.024.07.023.046.046.047.024.047.023.046.023.047.047.046.023.047.023.046.024.047.046.047.024.046.023.047.023.046.047.047.023.047.023.046.024.047h.023Zm-.023 0h.023-.023Zm1.886 5.1-2.795-4.518.932-.582L15.67 10.9l-.932.559Zm2.353 1.7-.932.583-.047-.07-.046-.07-.047-.07-.046-.07-.024-.07-.046-.069-.047-.07-.046-.07-.047-.07-.046-.07-.047-.07-.023-.07-.047-.07-.046-.069-.047-.093-.047-.07-.046-.07-.047-.07-.046-.07-.047-.07-.047-.07-.046-.07-.047-.07-.046-.07-.047-.069-.023-.07-.047-.07-.046-.07-.047-.093-.046-.07-.047-.07-.047-.07.932-.558.047.07.046.07.047.07.046.07.047.069.023.07.047.07.046.07.047.07.046.07.047.07.047.07.046.069.047.07.046.07.024.07.046.07.047.093.046.07.047.07.047.07.046.07.047.07.046.069.047.07.047.07.046.07.023.07.047.07.047.07.046.092.047.07v-.023Zm-.466 1.329-.466-.746.932-.582.466.769-.163.722-.77-.163Zm.932-.56.256.443-.42.28.164-.722Zm-.909-.093.117-.07.629.886-.117.093-.046.023-.583-.932Zm.63.909h-.024l-.023.023.046-.023Zm-.14.093-.583-.932h.023v-.023h.024v-.023h.046v-.024h.047l.535.932h-.023v.023h-.023v.024h-.047v.023Zm-4.1 1.188 3.517-2.12.582.932-3.54 2.12-.559-.932Zm-1.304 2.073-.56-.932.047-.046.07-.024.047-.046.07-.024.046-.046.07-.024.047-.046.07-.023.046-.047.07-.023.047-.047.07-.046.046-.024.07-.046.046-.024.07-.046.047-.023.07-.047.046-.023.07-.047.047-.023.07-.047.046-.023.07-.047.047-.046.07-.023.07-.047.046-.023.07-.047.046-.023.07-.047.047-.023.559.931-.047.047-.07.023-.046.047-.07.023-.046.047-.07.023-.047.047-.07.023-.046.047-.07.023-.047.046-.07.024-.046.046-.07.024-.047.046-.07.023-.07.047-.046.023-.07.047-.047.047-.07.023-.046.046-.07.024-.046.046-.07.024-.047.046-.07.023-.046.047-.07.023-.047.047-.07.023-.046.047Zm-.955.559-.56-.932.047-.023h.024l.023-.023.023-.024.047-.023h.023l.023-.023.024-.024.023-.023h.046l.024-.023.023-.024.023-.023h.047l.023-.023.024-.023.023-.024h.046l.024-.023.023-.023.023-.024.047-.023h.023l.023-.023.024-.023.046-.024h.024l.023-.023.046-.023.024-.024.023-.023h.047l.559.932-.047.023h-.023l-.023.023-.024.024-.046.023h-.024l-.023.023-.023.024-.047.023h-.023l-.023.023-.024.024-.046.023h-.024l-.023.023-.023.023-.047.024-.023.023h-.023l-.024.023-.046.024-.024.023h-.023l-.046.023-.024.023-.023.024-.023.023h-.047l-.023.023-.023.024-.047.023h-.023Zm-1.258-.513.699-.419.559.932-.7.42-.558-.933Zm-.49.606h1.095l-.768-.49v-.022h.046v-.024h.024l.023-.023h.023v-.023H9.5l.023-.024.559.932v.023h-.047v.024h-.023v.023h-.023l-.024.023h-.023l-.023.023h-.023l-.024.024h-.023v.023h-.047l-.023.023-.745-.512Zm.746.512-.745.303v-.815l.745.512Zm.35-17.166V18.75H9.032V2.096l.978-.35.117.35Zm-1.095 0V.536l.978 1.21-.978.35ZM4.21 8.618l.932.559-.07.116-.093.117-.07.116-.07.14-.07.117-.07.116-.07.117-.07.116-.092.116-.07.117-.07.116-.07.117-.07.14-.093.116-.07.117-.07.116-.07.116-.07.117-.093.116-.07.117-.07.116-.07.117-.07.116-.07.14-.092.116-.07.117-.07.116-.07.117-.07.116-.07.117-.07.116-.07.117-.931-.56.07-.116.07-.14.07-.116.07-.117.07-.116.07-.116.092-.117.07-.116.07-.117.07-.116.07-.14.093-.117.07-.116.07-.116.07-.117.07-.116.07-.117.093-.116.07-.117.07-.116.07-.14.069-.116.093-.117.07-.116.07-.117.07-.116.07-.117.07-.116.07-.117.07-.116.07-.117.092-.116Zm.233-.396.909.582v.047h-.024v.047h-.023v.023l-.023.023v.023h-.024v.024h-.023v.023l-.023.023v.024l-.023.023v.023h-.024v.047h-.023v.023l-.932-.559v-.023l.024-.024v-.023h.023v-.023l.023-.023v-.047h.024v-.023l.023-.024v-.023h.023v-.023l.023-.023v-.024h.024v-.023l.023-.023v-.024h.023v-.023Zm.233-.373.909.583v.046h-.024v.024H5.54v.046h-.023v.023l-.024.024v.023H5.47v.047h-.023v.023l-.023.023v.023h-.024v.024l-.023.023v.023h-.023l-.909-.582.024-.023v-.024h.023V8.13h.023v-.023l.023-.024V8.06h.024v-.047h.023V7.99l.023-.023v-.023l.024-.024v-.023h.023v-.023h.023v-.024Zm1.421-2.282.908.582-.046.07-.047.07-.046.07-.024.07-.046.07-.047.07-.046.07-.047.07-.047.069-.046.093-.047.07-.023.07-.047.07-.046.07-.047.07-.046.07-.047.07-.047.07-.046.069-.047.07-.023.07-.047.07-.046.07-.047.093-.046.07-.047.07-.047.07-.046.07-.047.069-.046.07-.047.07-.046.07-.909-.583.047-.07.046-.07.047-.07.023-.07.047-.069.046-.07.047-.07.047-.07.046-.07.047-.07.046-.07.047-.07.023-.069.047-.07.046-.07.047-.093.047-.07.046-.07.047-.07.046-.07.024-.07.046-.07.047-.07.046-.069.047-.07.046-.07.047-.07.047-.093.046-.07.047-.07.046-.07.047-.07Zm2.096-3.4.932.581-.07.117-.07.093-.07.117-.07.093-.046.116-.07.093-.07.117-.07.093-.07.116-.046.094-.07.116-.07.116-.07.094-.07.116-.07.093-.046.117-.07.116-.07.093-.07.117-.07.116-.07.093-.046.117-.07.093-.07.117-.07.116-.07.093-.07.117-.046.093-.07.116-.07.093-.07.117-.07.093-.908-.582.047-.093.07-.117.07-.093.07-.116.07-.094.046-.116.07-.093.07-.117.07-.093.07-.116.069-.094.047-.116.07-.116.07-.094.07-.116.07-.093.046-.117.07-.116.07-.093.07-.117.07-.116.07-.093.046-.117.07-.093.07-.117.07-.116.07-.093.069-.117.07-.093.047-.116.07-.093.07-.117Zm1.235-.07H8.357l.979.325h-.024v.024l-.023.023v.023h-.023v.024l-.024.023v.023l-.023.023v.024h-.023v.023l-.023.023v.024h-.024v.046h-.023v.023l-.932-.582.024-.023V2.12h.023v-.024l.023-.023V2.05l.023-.024v-.023l.024-.023v-.023h.023v-.024h.023v-.046h.024v-.024h.023V1.84l.023-.023v-.024l.023-.023.979.326ZM8.45 1.77 9.43.49v1.606L8.45 1.77Zm-.093 16.98V2.096H9.43V18.75l-.815.466-.257-.466Zm1.072 0v.978l-.815-.512.815-.466Zm-2.143-1.607 1.887 1.141-.56.932-1.886-1.118.559-.955Zm-1.49.372.535-.931.046.023h.024l.023.023.047.024.023.023.023.023h.047l.023.024.023.023.047.023.023.024h.024l.046.023.023.023.024.023h.023l.047.024.023.023.023.023.023.023h.047l.023.024.024.023.023.023h.023l.047.024.023.023h.023l.024.023.023.024.047.023h.023l-.56.955-.022-.023-.024-.024-.046-.023H6.61l-.023-.023-.046-.024-.024-.023h-.023l-.023-.023-.047-.023-.023-.024-.024-.023h-.046l-.023-.023-.024-.024-.023-.023h-.047l-.023-.023-.023-.024-.023-.023-.024-.023h-.046l-.024-.023-.023-.024-.023-.023h-.047l-.023-.023-.023-.024h-.024l-.023-.023-.047-.023-.023-.024ZM.926 13.93l.909.559-.07-.676-.07-.046.046.023.047.046.07.047.116.047.117.07.116.093.163.093.163.093.163.093.187.117.186.116.186.117.21.116.21.14.21.116.209.14.186.116.21.117.21.14.21.116.185.117.187.116.163.093.163.093.163.094.14.093.116.07.117.07.07.046.07.047.046.023-.536.931-.046-.023-.07-.046-.093-.047-.117-.07-.116-.07-.14-.093-.163-.093-.163-.093-.163-.093-.187-.117-.21-.116-.186-.117-.21-.116-.209-.14-.21-.116-.209-.14-.21-.117-.186-.116-.21-.14-.21-.116-.186-.117-.163-.116-.186-.093-.163-.094-.14-.093-.14-.093-.116-.07-.093-.046-.093-.07-.07-.024-.047-.046-.093-.07-.07-.675Zm.07.675-.303-.303.233-.372.07.675Zm1.794-1.63-.955 1.514-.909-.56.932-1.537.932.583ZM1.137 14.23l-.56.932H.556L.53 15.14H.508v-.024H.485l-.024-.023H.438l-.023-.023-.024-.023-.023-.024H.345L.322 15l-.024-.023-.023-.024-.023-.023-.024-.023-.023-.024-.023-.046-.023-.023-.024-.024-.023-.046v-.024l-.023-.046-.024-.023v-.047l-.023-.046v-.07l1.072-.187v-.023H1.09v-.047h-.023v-.046h-.023v-.024H1.02h.024v.024h.023l.023.023h.024l.023.023Zm2.469 1.491-.56.932.024.023-.093-.047-.07-.046-.07-.047-.093-.046-.07-.047-.07-.046-.07-.047-.093-.047-.07-.046-.093-.047-.07-.046-.07-.047-.093-.047-.07-.046-.093-.047-.07-.07-.07-.046-.093-.047-.07-.046-.093-.047-.07-.046-.07-.047-.093-.047-.07-.046-.07-.047-.093-.046-.07-.047-.07-.047-.093-.046-.07-.047-.07-.046-.07-.047.56-.932.07.047.07.046.093.047.07.047.07.046.093.047.07.046.07.047.093.047.07.046.093.047.07.046.07.047.093.046.07.047.093.07.07.047.07.046.092.047.07.046.07.047.093.046.07.047.07.047.093.046.07.047.07.046.07.047.093.047.07.023.07.046.07.047Zm.862 1.793-1.421-.861.559-.932 1.444.862-.582.931Zm2.003-.07-.583.932-.046-.023-.047-.023-.046-.023-.024-.047-.046-.023-.047-.024-.046-.023-.047-.023-.047-.024-.046-.023-.047-.046-.046-.024-.024-.023-.046-.023-.047-.024-.046-.023-.047-.023-.047-.023-.046-.047-.047-.023-.046-.024-.047-.023-.046-.023-.024-.024-.046-.046-.047-.023-.047-.024-.046-.023-.047-.023-.046-.047-.047-.023-.046-.024.582-.931.046.046.047.024.047.023.023.023.046.024.047.023.047.023.046.047.047.023.046.023.024.024.046.023.047.023.046.023.047.024.047.046.046.024.047.023.046.023.024.024.046.023.047.023.046.047.047.023.047.023.046.024.047.023.046.023.047.047.046.023.047.023.047.024Zm1.42.863-.559.931-.046-.023-.047-.024-.046-.023-.047-.023-.046-.047-.047-.023-.047-.023-.046-.024-.047-.023-.046-.023-.047-.023-.023-.047-.047-.023-.046-.024-.047-.023-.047-.023-.046-.023-.047-.047-.046-.023-.047-.024-.047-.023-.046-.023-.047-.023-.046-.047-.047-.023-.023-.024-.047-.023-.046-.023-.047-.023-.046-.047-.047-.023-.047-.024.583-.931.046.023.024.023.046.047.047.023.046.023.047.024.046.023.047.023.047.047.046.023.047.023.023.024.047.023.046.023.047.024.046.046.047.023.047.024.046.023.047.023.046.024.024.046.046.024.047.023.046.023.047.023.047.024.046.023.047.023.046.047.047.023.046.024Zm1.421.861-.605.909h-.024l-.023-.024-.023-.023-.047-.023-.023-.023-.047-.024-.046-.023-.047-.023-.046-.024-.047-.046-.047-.024-.046-.023-.047-.023-.046-.047-.047-.023-.046-.023-.047-.047-.07-.023-.047-.023-.046-.047-.047-.023-.046-.024-.047-.023-.046-.047-.047-.023-.047-.023-.046-.023-.047-.024-.046-.023-.024-.023-.046-.024-.024-.023.56-.931.023.023.046.023.024.023.046.024.047.023.046.023.024.024.07.023.046.023.047.047.046.023.047.023.046.024.047.046.07.023.047.024.046.046.047.024.046.023.07.046.047.024.046.023.047.047.046.023.047.023.047.023.046.024.024.023.046.023.023.024.047.023.023.023Zm-.14 0 .56.932h-.024l-.023.023-.023.024h-.024l-.023.023h-.047l-.023.023h-.023l-.023.023h-.07l-.047.024h-.326l-.023-.024h-.047l-.023-.023h-.047l-.023-.023h-.047l-.023-.023-.023-.024h-.023l-.024-.023-.046-.023.605-.909h.024H9.149h.024Zm5.311-3.214.582.932-.163.093-.186.093-.163.116-.163.094-.163.093-.163.116-.163.093-.163.094-.187.116-.163.093-.163.093-.163.093-.163.117-.163.093-.186.093-.163.117-.163.093-.163.093-.163.117-.163.093-.187.093-.163.116-.163.093-.163.094-.163.093-.163.116-.163.093-.186.094-.163.116-.163.093-.163.094-.163.116-.56-.932.164-.116.163-.093.163-.094.163-.116.163-.093.163-.093.186-.117.163-.093.163-.093.163-.117.163-.093.163-.093.187-.116.163-.094.163-.093.163-.093.163-.116.163-.094.186-.093.163-.116.163-.093.163-.094.163-.116.163-.093.164-.093.186-.117.163-.093.163-.093.163-.093.163-.117.163-.093.163-.093Zm0 0 .023-.023-.023.023Zm3.424-.792-2.842 1.724-.582-.932 2.842-1.724h.023l.559.932Zm-.582-.932h.023-.023Zm-.047.024.932-.56v-.023l.023.047.023.023v.047l.024.046.023.024.023.046.023.024.024.046.023.047v.046l.023.047.024.07v.303l-.024.07-.023.07-.023.07-.024.046-.046.07-.023.046-.047.047-.047.023-.046.047-.023.046-.047.024-.047.023-.046.046-.047.024-.046.023-.536-.932.023-.023.024-.023h.023v-.024.024l-.023.023-.024.023V14.418l-.023-.024v-.023l-.023-.023v-.024l-.024-.023-.023-.023v-.023Zm0 .023v-.023.023Zm.07-2.003.862 1.42-.932.56-.862-1.398.909-.582h.023Zm-.023 0h.023-.023Zm-2.213-1.514.908-.606.047.07.046.07.024.07.046.07.047.07.047.046.046.07.023.07.047.07.047.07.046.07.023.07.047.046.047.07.046.07.023.07.047.07.047.07.046.07.024.046.046.07.047.07.046.07.024.07.046.07.047.046.046.07.024.07.046.07.047.07.046.046.024.07-.909.582-.046-.07-.047-.046-.046-.07-.024-.07-.046-.07-.047-.07-.047-.07-.023-.07-.046-.046-.047-.07-.046-.07-.024-.07-.046-.07-.047-.07-.047-.07-.023-.07-.046-.046-.047-.07-.047-.07-.023-.07-.046-.07-.047-.07-.047-.046-.023-.07-.046-.07-.047-.07-.047-.07-.023-.046-.047-.07-.046-.07-.047-.07-.023-.046Zm-1.747-2.842.909-.559.07.07.046.093.046.093.07.094.047.07.046.093.07.093.047.093.047.093.07.07.046.093.047.093.07.094.046.093.07.093.047.07.046.093.07.093.047.093.046.093.07.07.047.093.046.094.07.093.047.093.046.07.07.093.047.093.046.07.047.093.07.093.046.07-.908.606-.07-.093-.046-.093-.047-.094-.07-.07-.046-.093-.07-.093-.047-.093-.047-.093-.07-.07-.046-.093-.047-.093-.07-.094-.046-.093-.047-.07-.07-.093-.046-.093-.047-.093-.07-.093-.046-.093-.047-.07-.07-.093-.046-.094-.047-.093-.07-.093-.046-.07-.047-.093-.07-.093-.046-.093-.047-.07-.07-.093-.046-.094-.047-.07V7.92Zm0 .024v-.024.024Zm-.838-3.401 1.747 2.818-.909.56-1.747-2.796.909-.582Zm-1.794-.839.932-.559v-.023l.023.047.023.046.047.047.023.046.024.047.023.047.023.046.047.047.023.046.023.047.024.047.023.023.023.046.047.047.023.047.023.046.024.047.023.046.023.047.024.023.046.047.023.046.024.047.023.047.023.046.024.047.046.046.023.024.024.046.023.047.023.046.024.047-.909.582-.046-.046-.024-.047-.023-.047-.023-.046-.024-.047-.023-.046-.046-.047-.024-.023-.023-.047-.023-.046-.024-.047-.023-.046-.046-.047-.024-.047-.023-.046-.023-.047-.024-.023-.023-.047-.046-.046-.024-.047-.023-.046-.023-.047-.024-.047-.023-.046-.023-.024-.047-.046-.023-.047-.023-.046-.024-.047-.023-.046-.023-.047-.047-.047ZM10.127.675l1.538 2.47-.932.558L9.22 1.234l.909-.582v.023Zm0-.023v.023-.023Zm-1.024.396.675-.862.047.024v.023l.023.023.023.024.024.023.023.023.023.023v.024l.023.023h.024v.047l.023.023.023.023.024.023v.024l.023.023v.023l.023.024v.023l.024.023-.909.582h-.023v-.023l-.023-.023v-.023h-.024v-.047h-.023v-.023l-.023-.024v-.023h-.024v-.023l.024.023Zm.256 0L8.683.186l.024-.023.046-.023.024-.024H8.8l.046-.023L8.87.07h.046L8.94.047h.046L9.01.023h.07L9.126 0h.21l.046.023h.07l.047.024h.023l.046.023h.024l.046.023.024.023.023.024.047.023h.023l.023.023-.675.862.023.023h.047v.024H9.289V1.07h.047v-.023h.023Zm-.093.186L8.31.675h.023V.652L8.357.63V.606l.024-.024V.56l.023-.023.023-.024V.49L8.45.466V.443h.024V.419l.023-.023.023-.023V.349l.024-.023h.023V.303L8.59.28l.024-.024.023-.023L8.66.21l.023-.024.676.862h.023v-.023.023H9.36v.047h-.023v.023l-.024.023v.024H9.29v.046h-.023v.023Zm-.443.723-.932-.583v.024-.047l.024-.023v-.024l.023-.023.023-.023v-.024l.024-.023.023-.023.023-.023V1.14l.024-.023.023-.023V1.07l.023-.023v-.023l.023-.023V.978l.024-.023.023-.023V.908l.023-.023V.862l.024-.023h.023V.815l.023-.023V.769l.023-.024V.722l.024-.023V.675l.955.56-.024.023-.023.023v.023l-.023.024v.023l-.023.023-.024.024v.023l-.023.023-.023.023v.024l-.024.023v.023l-.023.024v.023l-.023.023-.024.023v.024l-.023.023V1.7l-.023.024H8.94v.023l-.024.023v.023l-.023.024v.023l-.023.023v.024l-.024.023-.023.023v.024Zm0-.024v.024-.024Zm-1.793.839.861-1.398.932.583-.885 1.397-.908-.582ZM4.468 8.99l-.932-.583.116-.186.094-.163.116-.163.116-.186.094-.163.116-.187.117-.186.093-.163.116-.186.117-.164.093-.186.116-.163.117-.186.093-.163.116-.187.117-.186.093-.163.116-.186.117-.163.093-.187.116-.186.117-.163.093-.186.117-.163.116-.187.093-.163.117-.186.116-.187.093-.163.117-.186.116-.163.117-.186.908.582-.093.186-.117.163-.116.187-.116.163-.094.186-.116.163-.117.187-.093.163-.116.186-.117.163-.093.186-.116.187-.117.163-.093.186-.116.163-.117.186-.093.187-.116.163-.094.186-.116.163-.117.186-.116.163-.093.187-.117.186-.116.163-.093.187-.117.163-.116.186-.093.163-.117.186-.116.163-.117.187h.024Zm-1.817.838.885-1.42.932.582-.886 1.397-.931-.559Zm.07 1.98-.932-.582.023-.047.024-.046.023-.047.023-.023.023-.047.047-.046.023-.047.024-.047.023-.046.023-.047.047-.046.023-.047.023-.047.024-.046.023-.024.047-.046.023-.047.023-.046.023-.047.024-.046.023-.047.047-.023.023-.047.023-.046.023-.047.024-.047.023-.046.023-.047.047-.023.023-.047.023-.046.024-.047.931.56-.023.046-.023.046-.023.047-.047.046-.023.047-.024.047-.023.046-.023.047-.047.046-.023.024-.023.046-.024.047-.023.046-.046.047-.024.047-.023.046-.023.047-.024.023-.023.047-.047.046L3 11.32l-.023.046-.023.047-.024.047-.023.023-.023.046-.047.047-.023.047-.023.046-.024.047-.023.023-.023.047v.023Zm0-.023v.023-.023Zm-2.47 1.91 1.538-2.47.932.583-1.538 2.469-.931-.582Zm.863.605-1.072.187-.023-.047V14.208l.023-.023v-.07l.023-.047v-.046l.024-.047v-.023l.023-.023v-.024l.023-.023v-.023l.024-.024v-.023h.023v-.023l.023-.024.023-.023v-.023h.024v-.023l.931.582-.023.023-.023.024v.023l-.023.023v.023H1.09h.024v-.093Z" fill="#fff"/><path fill-rule="evenodd" clip-rule="evenodd" d="m9.569 2.096.046.047c0 .023.023.046.023.07l.886 1.397c.326.513.605 1.025.931 1.514.326.513.629 1.025.955 1.514l2.795 4.542c.466.769.978 1.514 1.421 2.283l.466.745-.14.093c-.023.024-.07.047-.093.07l-3.54 2.12c-.63.372-1.258.768-1.864 1.141-.326.186-.629.373-.955.559l-.699.42c-.07.046-.163.116-.232.139V2.096ZM2.325 12.694c.745-1.258 1.584-2.539 2.352-3.796.07-.14.14-.257.233-.373.07-.117.14-.256.233-.373.466-.768.932-1.537 1.398-2.282.722-1.095 1.42-2.306 2.12-3.401.069-.14.139-.256.232-.373V18.75l-1.887-1.118c-.302-.186-.605-.396-.931-.582-.42-.233-4.635-2.772-4.705-2.842l.955-1.514Zm-1.747 1.7c.023.163.14.233.28.303.791.466 1.7 1.048 2.468 1.49l1.444.863c.466.302.932.582 1.398.861.489.303.955.583 1.444.862.326.21 1.118.652 1.398.862.163.093.279.093.442 0 1.747-1.095 3.564-2.143 5.31-3.214l2.866-1.724c.372-.233.326-.372.116-.722l-.862-1.397c-.442-.7-.885-1.421-1.328-2.12-.582-.908-1.164-1.887-1.746-2.818L12.06 4.82c-.28-.465-.56-.931-.862-1.397L9.662.955a1.124 1.124 0 0 0-.21-.326.324.324 0 0 0-.442 0c-.07.046-.164.233-.233.326l-.42.699-.885 1.42c-1.164 1.864-2.306 3.774-3.47 5.614l-.885 1.42c-.28.467-.583.932-.862 1.398l-1.537 2.47c-.07.116-.187.232-.14.418Z" fill="#fff"/><path d="m7.24 24.852 2.096 2.865-.886.653-2.096-2.865.885-.652Zm-2.12-1.048.862-.675.046.046.023.047.047.07.047.046.023.047.046.047.047.07.023.046.047.047.046.07.047.046.023.07.047.047.047.046.046.07.023.047.047.07.047.046.046.047.023.07.047.046.047.07.023.047.046.046.047.07.023.047.047.046.047.07.023.047.046.046.024.047.046.046-.885.653-.023-.047-.047-.046-.046-.07-.024-.047-.046-.047-.047-.07-.023-.046-.047-.047-.046-.07-.023-.046-.047-.047-.047-.07-.046-.046-.024-.07-.046-.047-.047-.046-.023-.07-.047-.047-.046-.07-.047-.046-.023-.047-.047-.07-.046-.046-.023-.047-.047-.07-.047-.046-.023-.047-.047-.046-.023-.047-.046-.046-.047-.047-.023-.047Zm-.443-.605.885-.63.024.024h.023v.023l.023.024v.023l.023.023.024.024.023.023v.023h.023v.023l.024.024v.023l.023.023.023.024v.023l.023.023h.024v.024l.023.023v.023h.023v.023l.024.024v.023h.023v.023l.023.024h.024v.023l-.862.675-.024-.023v-.023l-.023-.023-.023-.024v-.023h-.023l-.024-.023v-.024l-.023-.023v-.023h-.023v-.024l-.024-.023-.023-.023v-.023h-.023v-.024l-.023-.023v-.023l-.024-.024h-.023v-.023l-.023-.023v-.023H4.77v-.024l-.023-.023v-.023h-.023v-.024l-.024-.023-.023-.023Zm-.768-2.935 1.653 2.306-.885.629-1.654-2.283.862-.652h.024Zm-.024 0h.024-.024Zm-1.397-1.863-.56.931.77-.722-.024-.023h.023v.023l.024.047.023.023.047.047.023.07.046.046.047.047.047.07.046.07.047.07.046.07.07.07.047.092.046.07.07.07.047.07.046.07.047.093.07.07.046.046.047.07.047.07.046.047.024.07.046.046.023.024.024.046.023.023.023.024v.023l-.862.652L3 20.893v-.023l-.023-.024-.047-.046-.023-.047-.047-.047-.023-.046-.046-.047-.047-.07-.047-.07-.046-.07-.047-.07-.07-.069-.046-.07-.047-.07-.07-.093-.046-.07-.047-.07-.07-.07-.046-.07-.047-.093-.047-.046-.046-.07-.047-.07-.046-.047-.047-.07-.023-.046-.023-.047-.047-.023-.023-.046v-.024l-.047-.046.769-.722Zm-.769.722-.885-1.747L2.488 18.4l-.769.722Zm1.887 1.234-1.677-1.025.559-.931 1.677 1.024h.023l-.582.932Zm.559-.931h.023-.023Zm4.192 2.538-.582.932-.116-.07-.14-.093-.14-.07-.116-.07-.14-.093-.117-.07-.14-.093-.116-.07-.14-.093-.14-.07-.116-.07-.14-.093-.14-.07-.116-.093-.14-.07-.116-.07-.14-.093-.14-.07-.116-.093-.14-.07-.14-.093-.116-.07-.14-.07-.116-.093-.14-.07-.14-.093-.116-.07-.14-.093-.116-.07-.14-.093-.14-.07-.116-.07.582-.931.117.07.14.093.116.07.14.093.116.07.14.07.116.093.14.07.14.093.116.07.14.07.116.093.14.07.14.093.116.07.14.07.116.092.14.07.14.093.116.07.14.093.14.07.116.07.14.093.14.07.116.093.14.07.117.093.14.07.14.094.116.07.14.093v-.024Zm.257 1.444-.839-.512.582-.932.816.513.256.466-.815.465Zm.559-.931.256.163v.303l-.256-.466Zm-.839 5.567.023-5.101H9.43v5.1l-.979.327-.116-.326Zm1.095 0v1.677L8.45 28.37l.979-.326Zm.023-5.66.582.931h-.023l-.023.023h-.024l-.023.024h-.023.023l.023-.023v-.024h.024l.023-.023.023-.023v-.024l.024-.023.023-.023v-.047l.023-.023v-.07h.024v-.047H9.032v-.139l.023-.047v-.023l.023-.047.024-.046.023-.047.023-.023.024-.047.023-.023.023-.047.023-.023.024-.023h.046l.024-.024.023-.023.023-.023h.023l.024-.023h.023Zm4.006-2.446.56.932-.117.07-.14.07-.116.092-.117.07-.14.07-.116.07-.117.093-.14.07-.116.07-.14.093-.116.07-.116.07-.14.07-.117.093-.14.07-.116.07-.14.093-.116.07-.116.07-.14.07-.117.093-.14.07-.116.07-.116.093-.14.07-.117.07-.116.07-.117.092-.14.07-.116.07-.116.07-.117.093-.582-.931.116-.07.117-.093.14-.07.116-.07.117-.093.116-.07.14-.07.116-.07.14-.093.117-.07.116-.07.14-.093.116-.07.14-.07.116-.093.117-.07.14-.07.116-.07.14-.093.116-.07.14-.07.117-.093.116-.07.14-.07.116-.07.14-.092.116-.07.117-.07.14-.07.116-.093.117-.07.116-.07h.023Zm-.023 0h.023-.023Zm1.42.42-.838.512-.559-.932.839-.512v-.024l.559.955Zm-.558-.933v-.023.023Zm2.399-.232-.885-.653.629.839.046-.023-.023.023h-.023l-.047.023-.047.023-.046.047-.047.023-.07.024-.046.046-.07.047-.07.023-.07.047-.07.046-.07.047-.07.046-.07.047-.07.023-.07.047-.069.047-.07.046-.07.047-.046.023-.07.047-.047.046-.07.023-.046.024-.047.046-.023.024-.047.023h-.023l-.023.023-.56-.955h.024l.023-.023h.024l.046-.023.047-.047.046-.023.047-.024.046-.046.07-.023.07-.047.07-.047.07-.046.07-.024.07-.046.07-.047.07-.046.07-.047.07-.046.07-.047.07-.047.069-.023.07-.046.046-.047.07-.023.047-.047.046-.023.047-.023.047-.024.046-.023.047-.023.023-.024.07-.023.629.839Zm-.63-.839 1.701-.652-1.071 1.49-.63-.838Zm-1.513 1.933 1.258-1.747.885.653-1.258 1.723-.885-.629Zm-.769 2.935-.908-.652.07-.07.046-.07.047-.07.047-.07.07-.07.046-.07.047-.07.046-.07.07-.092.047-.07.046-.07.07-.07.047-.07.046-.07.047-.07.07-.07.046-.093.047-.07.07-.07.046-.07.047-.07.046-.069.07-.07.047-.07.047-.07.046-.07.047-.07.07-.07.046-.07.047-.069.046-.07.047-.07.885.63-.046.069-.047.07-.047.07-.046.07-.047.07-.07.07-.046.07-.047.07-.046.092-.07.07-.047.07-.046.07-.07.07-.047.07-.047.07-.046.07-.07.093-.047.07-.046.07-.07.07-.047.07-.046.069-.07.07-.047.07-.046.07-.047.07-.07.07-.046.093-.047.07-.046.07-.047.07-.047.07Zm-.21.28-.884-.653-.024.024.024-.024v-.023h.023v-.023h.023v-.047h.023v-.023h.024v-.023l.023-.024.023-.023v-.023h.024v-.024l.023-.023v-.023l.908.652h-.023v.023h-.023v.024h-.024v.046h-.023v.023h-.023v.024l-.023.023v.023h-.024v.024h-.023v.023l-.023.023v.024Zm-2.352 1.374 1.468-2.027.885.653-1.468 2.003-.023.023-.862-.652Zm.885.629v.023h-.023l.023-.023Zm-1.257 1.723-.886-.652.047-.047.047-.046.023-.047.046-.07.024-.046.046-.047.047-.046.023-.07.047-.047.046-.046.024-.07.046-.047.047-.046.023-.07.047-.047.046-.046.047-.07.023-.047.047-.046.046-.07.024-.047.046-.046.047-.07.023-.047.047-.07.046-.046.047-.047.023-.047.047-.07.046-.046.024-.047.046-.07.862.676-.023.047-.047.046-.023.047-.047.046-.046.07-.024.047-.046.046-.047.047-.023.07-.047.046-.046.047-.023.07-.047.046-.047.047-.023.07-.047.046-.046.047-.047.07-.023.046-.047.047-.046.07-.024.047-.046.046-.047.07-.023.047-.046.046-.047.07-.023.047-.047.046-.047.07-.023.047-.046.046Zm-1.654.42.768-1.072.886.652-.77 1.072-.884-.63v-.023Zm0 .023v-.023.023Zm.815.699-.815-.7h-.023.023v-.023.024-.023.023l.885.629h-.023v.023-.023.023h-.024v.023l-.023.024Zm.023-.024-.023.024.023-.024Zm-1.001-.302h1.095l-.909-.396v-.024.024-.024.024h-.023v.023h-.023.023l.815.699v.023-.023.023-.023.023h-.023v.023h-.024v.023h-.023v.024l-.908-.42Zm.908.419-.908.792v-1.211l.908.419Zm.186-5.45v5.03H9.034v-5.03h1.095Zm-.745 5.52.885.652v-.023.046h-.023v.023h-.023v.024l-.024.023v.023h-.023v.024l-.023.023-.024.023v.023h-.023v.024l-.023.023-.023.023v.024h-.024l-.861-.653v-.023h.023v-.023h.023v-.024l.023-.023.024-.023v-.023h.023v-.024l.023-.023v-.023h.024v-.024l.023-.023.023-.023v-.023Zm1.351.023-.466.629-.885-.652.466-.63.885.653Zm-.443-1.258.886.629v.023h-.024v.024l-.023.023v.023h-.023l-.024.024v.023l-.023.023v.023h-.023v.024l-.023.023-.024.023v.023h-.023v.024l-.023.023v.023l-.024.024-.023.023-.023.023-.023.024v.023l-.024.023v.023l-.023.024-.023.023v.023h-.024l-.023.024-.023.023-.862-.652.023-.023v-.024l.024-.023h.023v-.023l.023-.024v-.023h.023v-.023l.024-.024.023-.023v-.023h.023v-.023l.024-.024v-.023l.023-.023h.023v-.024l.024-.023v-.023l.023-.023.023-.024v-.023h.023l.024-.023v-.024l.023-.023.023-.023v-.024l.024-.023.023-.023-.024.023Zm.886.629v.023-.023Zm.908-1.234-.908 1.234-.886-.629.909-1.258.885.63v.023Zm0-.024v.024-.024Zm-.42-1.258.863.653v.023l-.024.023v.024h-.023l-.023.023v.023l-.024.023v.024h-.023l-.023.023v.023l-.024.024v.023h-.023l-.023.023v.023l-.023.024v.023l-.024.023h-.023v.024l-.023.023v.023l-.024.023-.023.024-.023.023v.023l-.023.024-.024.023v.023h-.023l-.885-.629.023-.023.024-.023v-.023l.023-.024.023-.023V25.9l.023-.024h.024v-.023l.023-.023v-.023l.023-.024.024-.023v-.023h.023l.023-.024v-.023l.023-.023v-.024l.024-.023.023-.023.023-.023.024-.024v-.023l.023-.023.023-.024v-.023l.024-.023h.023v-.023Zm.234-.302.885.629h-.024v.046h-.023v.024h-.023v.023l-.023.023v.023h-.024v.024h-.023v.046h-.023v.024h-.024v.023l-.023.023-.023.023v.024h-.023l-.862-.652v-.024h.023v-.023h.023v-.023l.024-.024v-.023h.023v-.023h.023v-.023l.024-.024v-.023h.023v-.023l.023-.024.023-.023v-.023h.024Zm-.024 0h.024-.024Zm6.336-6.848-5.427 7.477-.885-.63 5.45-7.5.862.653Zm-.839-.536 1.025-.373v.047l.023.023v.047l.024.046v.303l-.024.047v.023l-.023.047v.023l-.023.023v.047l-.024.023v.024l-.023.023v.023l-.023.023-.023.024v.023h-.024v.023h-.023v.024l-.023.023-.862-.652v-.024l.023-.023v-.023h.024-.024v.07l-.023.023v.047h.023v.046Zm.187.14V16.77h.139l.047.024h.07l.023.023h.047l.023.023.047.023h.023l.023.024.047.023.023.023.023.023.024.024.046.023.023.023.024.024.023.023v.023l.023.024.024.023.023.023.023.023v.024l.023.023v.047l.024.023.023.023v.023l-1.025.373v.023l.024.024v.023h.023l.023.023h.024v.024h.046v.023h.047Zm-.093.093-.56-.932v-.023h.047v-.023h.023l.024-.024h.023v-.023h.023l.023-.023h.024l.023-.023h.023l.024-.024h.023l.023-.023h.024l.023-.023h.046l.047-.023h.047l.046-.024h.117v1.095h.07v-.023.023h-.024l-.023.023h-.023v.023h-.047v.024h-.023l-.023.023Zm-3.89 1.118 3.33-2.05.56.932-3.331 2.05-.583-.932h.024Zm-.024 0h.024-.024Zm-3.936 3.68-.582-.908.14-.093.14-.093.139-.094.14-.07.14-.093.14-.093.139-.093.14-.07.14-.093.163-.093.14-.093.14-.07.139-.094.14-.093.14-.07.14-.093.139-.093.163-.093.14-.07.14-.093.14-.093.139-.07.14-.093.14-.093.14-.094.139-.07.14-.093.14-.093.14-.07.139-.093.14-.093.14-.07.582.909-.14.093-.14.093-.14.093-.14.07-.14.093-.139.093-.14.093-.14.07-.162.093-.14.094-.14.07-.14.093-.14.093-.14.07-.139.093-.14.093-.163.093-.14.07-.14.093-.139.093-.14.07-.14.093-.14.094-.139.093-.14.07-.14.093-.14.093-.139.07-.14.093-.14.093-.14.093-.139.07Zm-.745.023.582-.931h-.023l-.024-.023H9.36l-.023-.024h-.187l-.046.024h-.047l-.023.023h-.024v.023h-.023.023v-.023h.024l.582.908v.023h-.047v.024h-.023l-.023.023h-.023l-.024.023H9.43l-.047.024h-.046l-.024.023h-.139l-.047-.023h-.07l-.047-.024h-.023l-.023-.023H8.94l-.024-.023-.023-.024H8.87Zm-.652-.395.559-.932H8.8l.023.023h.023l.024.023h.023v.024h.023l.024.023h.023l.023.023h.023l.024.024h.023l.023.023v.023h.024l.023.023h.023l.024.024h.023l.023.023h.023l.024.023.023.024h.023l.024.023h.023v.023h.023l.023.024.024.023h.023l-.582.931-.024-.023h-.023l-.023-.023-.023-.023h-.024l-.023-.024h-.023l-.024-.023-.023-.023-.023-.024h-.023l-.024-.023h-.023l-.023-.023H8.52l-.023-.023-.023-.024H8.45l-.023-.023h-.023l-.023-.023-.024-.024h-.023l-.023-.023h-.024l-.023-.023-.023-.023-.023-.024v.024Zm-6.778-5.45 7.337 4.518-.56.932-7.36-4.52.583-.93Zm-.326.698-1.072.21-.023-.07V17.539l.023-.07v-.047l.023-.07.024-.046.023-.047.023-.07.047-.046.023-.047.047-.046.046-.047.047-.047.07-.046.046-.023.07-.047.07-.023.07-.023h.07l.07-.024h.163l.07.024h.07l.07.023.07.023.046.023.07.047.07.023-.583.932H.834h.093l.023-.023h.047l.023-.024h.024v-.023h.023v-.023h.023v-.047l.024-.023v-.07Zm.326.42-.885.651v-.023l-.024-.023-.023-.023v-.024l-.023-.023-.024-.023v-.024l-.023-.023-.023-.023-.024-.023v-.024l-.023-.023-.023-.023-.023-.024-.024-.023-.023-.046v-.024l-.023-.023-.024-.023-.023-.024-.023-.046v-.024l-.023-.023-.024-.023-.023-.023v-.047l-.023-.023-.024-.047-.023-.046v-.07l1.072-.21-.024-.047v-.046.023l.024.023v.024l.023.023.023.023.023.024v.023l.024.023.023.023.023.024v.023l.024.023.023.024.023.023v.023l.023.023.024.024v.023l.023.023v.024h.023l.024.023v.023l.023.024-.023-.024Zm-.885.651v-.023.023Zm4.099 5.614-4.1-5.614.886-.652 4.099 5.614-.885.652Zm3.144 2.469-.885.652-.07-.117-.07-.093-.07-.093-.07-.093-.07-.093-.069-.093-.07-.117-.07-.093-.07-.093-.07-.093-.07-.094-.07-.093-.07-.116-.069-.093-.07-.093-.07-.094-.07-.093-.07-.116-.07-.093-.07-.094-.092-.093-.07-.093-.07-.116-.07-.094-.07-.093-.07-.093-.07-.093-.07-.117-.07-.093-.07-.093-.07-.093-.07-.093.886-.652.07.093.07.116.07.093.07.094.07.093.07.093.07.093.069.116.07.094.07.093.07.093.07.093.07.093.093.117.07.093.07.093.07.093.069.117.07.093.07.093.07.093.07.094.07.116.07.093.07.093.07.093.069.094.07.116.07.093.07.093.07.094.07.093Zm.49 2.515-1.375-1.863.885-.652 1.375 1.886-.886.63Zm.885-.396.326 1.048-.07.024h-.047l-.07.023h-.14l-.07-.023h-.07l-.046-.024-.07-.023-.046-.023-.07-.023-.047-.047-.046-.023-.024-.024-.046-.046-.023-.023-.047-.024-.023-.046-.024-.024-.023-.023-.023-.046-.024-.024-.023-.023-.023-.023-.023-.024v-.023l-.024-.023-.023-.024v-.023l-.023-.023-.024-.023V29.3l.886-.629.023.024.023.023v.023l.023.023.024.024v.023l.023.023v.024l.023.023.024.023.023.024v.023-.023h-.023l-.024-.024H9.173Zm0-.07.861.653v.023h-.023v.047h-.023v.023h-.024v.046h-.023l-.023.024v.023l-.023.023H9.87v.024l-.023.023-.023.023-.024.023-.023.024h-.023l-.047.023-.023.023-.023.024-.024.023h-.046l-.024.023h-.023l-.046.023-.326-1.048h-.024v.024h-.046v.023h-.024v.023-.023h.024v-.023l.023-.024v-.023h.023v-.023l.024-.024Z" fill="#fff"/><path fill-rule="evenodd" clip-rule="evenodd" d="m8.893 28.044-2.096-2.865c-.396-.536-.862-1.212-1.258-1.724-.14-.186-.28-.373-.42-.582L3.467 20.59c-.093-.116-1.211-1.63-1.258-1.724l1.677 1.025c1.374.862 2.795 1.7 4.193 2.54l.815.512v5.1Zm.675-5.032c0-.116.07-.116.163-.163 1.305-.815 2.679-1.63 4.007-2.445l.838-.513c.186-.116 1.56-.978 1.677-1.024l-1.258 1.723a72.019 72.019 0 0 1-1.677 2.306c-.046.093-.14.186-.186.28l-1.467 2.026c-.42.536-.839 1.164-1.258 1.7l-.769 1.072-.046.046c0 .024 0 .024-.024.024v-5.032Zm.047 6.15c.07-.117.14-.21.21-.303l.465-.63c.164-.209.28-.418.443-.628l.908-1.235c.163-.21.303-.419.466-.628.07-.117.14-.21.233-.326l5.427-7.477c.093-.117.186-.21.117-.396a.36.36 0 0 0-.326-.233c-.14.023-.28.116-.373.186l-3.33 2.05c-1.492.908-3.052 1.84-4.52 2.748-.093.07-.093.07-.186.024-.21-.14-.442-.28-.652-.396l-7.36-4.519c-.373-.233-.606.07-.56.326.024.117.35.536.42.652l4.1 5.614c.745 1.024 1.537 2.096 2.259 3.12l1.374 1.864c.163.256.326.536.605.443.14-.024.187-.14.28-.256Z" fill="#fff"/></svg>