<svg width="30" height="30" fill="none" xmlns="http://www.w3.org/2000/svg"><path fill-rule="evenodd" clip-rule="evenodd" d="M21.665.012c-.965.115-1.655 1.01-1.544 2.02.11.98.965 1.702 1.903 1.587.938-.116 1.627-1.01 1.517-1.991-.11-.981-.938-1.732-1.876-1.616ZM22.024 27.424c.11.98.965 1.731 1.903 1.616.938-.116 1.628-.982 1.545-1.963-.11-.98-.938-1.73-1.904-1.615-.937.115-1.627.98-1.544 1.962ZM1.529 14.526c-.938.086-1.628.98-1.517 1.99.11.982.965 1.674 1.903 1.559.938-.116 1.627-.981 1.517-1.991-.11-.981-.965-1.674-1.903-1.558ZM5.225 11.958a1.53 1.53 0 0 0-1.241 1.76c.138.808.883 1.414 1.683 1.27.8-.145 1.351-.895 1.24-1.76-.137-.809-.882-1.415-1.682-1.27ZM22.107 5.061c-.8.116-1.352.866-1.27 1.703.111.837.856 1.442 1.656 1.327.8-.115 1.352-.866 1.269-1.702-.11-.837-.855-1.443-1.655-1.328ZM3.846 8.178c-.8.115-1.407.836-1.324 1.673.083.837.8 1.472 1.627 1.385.8-.086 1.38-.866 1.297-1.702-.11-.808-.828-1.443-1.6-1.356ZM25.996 5.638c-.8.087-1.407.866-1.296 1.703.082.808.827 1.443 1.627 1.327.8-.086 1.38-.837 1.269-1.702-.083-.837-.8-1.414-1.6-1.328ZM15.735 28.636c.055.836.8 1.442 1.572 1.356.8-.087 1.38-.808 1.297-1.645-.056-.837-.773-1.472-1.6-1.356-.8.086-1.352.808-1.27 1.645ZM19.376 23.846a1.484 1.484 0 0 0-1.241 1.673c.082.837.8 1.414 1.6 1.299.8-.087 1.323-.837 1.24-1.645-.082-.837-.8-1.414-1.6-1.327ZM21.583 9.332c-.69.115-1.159.837-1.049 1.558.138.721.8 1.212 1.49 1.096.69-.144 1.159-.836 1.048-1.558-.138-.75-.772-1.212-1.49-1.096ZM8.949 10.572c-.69.058-1.214.635-1.159 1.386.028.72.635 1.298 1.324 1.24.718-.086 1.214-.692 1.186-1.414-.055-.72-.661-1.27-1.351-1.212ZM28.672 11.12c-.717.087-1.214.693-1.159 1.444.028.72.662 1.24 1.352 1.183.69-.03 1.186-.693 1.13-1.414-.027-.693-.634-1.27-1.323-1.212ZM16.314 21.537c-.69.087-1.186.722-1.13 1.472.082.692.716 1.24 1.406 1.154.69-.087 1.186-.721 1.103-1.443-.082-.721-.69-1.24-1.379-1.183ZM7.349 6.821c-.662.116-1.131.808-1.02 1.5.11.722.772 1.213 1.461 1.097.662-.144 1.131-.808 1.021-1.529a1.264 1.264 0 0 0-1.462-1.068ZM13.859 24.769c-.69.116-1.159.78-1.049 1.5.138.722.773 1.212 1.463 1.068.662-.115 1.13-.779 1.02-1.5-.11-.722-.745-1.183-1.434-1.068ZM25.582 9.909a1.277 1.277 0 0 0-1.158 1.385c.055.721.662 1.27 1.352 1.212.69-.029 1.186-.693 1.158-1.385-.055-.722-.662-1.27-1.352-1.212ZM10.245 28.376c.083.692.69 1.24 1.38 1.154a1.26 1.26 0 0 0 1.103-1.414c-.055-.721-.69-1.27-1.352-1.183-.69.087-1.186.722-1.13 1.443ZM6.825 3.445c-.635.116-1.104.78-.966 1.472.11.693.745 1.154 1.407 1.039a1.287 1.287 0 0 0 .993-1.472c-.11-.692-.772-1.183-1.434-1.039ZM27.43 14.583a1.153 1.153 0 0 0-.882 1.328c.11.606.662 1.01 1.269.894.579-.115.965-.692.855-1.327-.11-.577-.662-1.01-1.242-.895ZM10.163 2.984c-1.407.23-1.104 2.395.275 2.222.58-.058.994-.635.938-1.27-.082-.577-.634-1.039-1.213-.952ZM20.562 12.794c-.607.116-1.02.635-.938 1.27.083.606.635 1.068 1.214.952.579-.086.993-.635.91-1.27-.083-.577-.634-1.038-1.186-.952ZM10.687 6.389c-.58.115-.993.663-.91 1.298.082.606.634 1.039 1.213.923.58-.086.993-.663.91-1.27-.082-.605-.634-1.038-1.213-.951ZM12.121 10.169c-.58.115-.993.663-.883 1.298.11.606.635 1.01 1.242.923.579-.115.965-.721.882-1.298-.11-.606-.662-1.039-1.241-.923ZM24.424 13.371c-.58.058-1.02.606-.938 1.212.055.635.607 1.068 1.186.981.58-.057.993-.634.938-1.24-.083-.606-.607-1.04-1.186-.953ZM14.19 19.085c-.607.086-1.02.634-.938 1.27.083.605.634 1.038 1.214.951.579-.086.993-.663.91-1.27-.083-.576-.607-1.038-1.186-.951ZM11.735 22.288c-.58.115-.966.692-.855 1.298a1.07 1.07 0 0 0 1.213.923c.58-.115.966-.692.883-1.298-.11-.606-.662-1.01-1.241-.923ZM9.225 24.48c-.58.058-.993.635-.938 1.241a1.051 1.051 0 0 0 1.186.952c.58-.057.993-.605.938-1.211-.083-.606-.607-1.068-1.186-.982ZM22.88 15.997c-1.242.202-.939 2.078.247 1.905.524-.058.883-.577.8-1.097-.082-.52-.551-.923-1.048-.808ZM13.031 3.301c-1.24.173-.992 2.049.221 1.905.497-.058.855-.578.8-1.097-.083-.49-.551-.894-1.02-.808ZM10.494 19.835c-1.214.202-.91 2.077.303 1.904.497-.086.828-.606.745-1.125-.055-.49-.552-.895-1.048-.78ZM15.018 10.457c-1.214.173-1.021 2.049.193 1.933.524-.057.882-.548.827-1.067-.055-.52-.524-.924-1.02-.866ZM18.99 15.449c-1.187.23-.856 2.077.33 1.876.47-.087.828-.578.745-1.097-.082-.52-.551-.894-1.076-.779ZM13.556 6.706c-1.214.173-.994 2.049.22 1.904.497-.057.855-.548.773-1.067-.056-.52-.497-.924-.993-.837ZM7.9 22.028c-.496.086-.827.577-.716 1.125a.94.94 0 0 0 1.075.75.951.951 0 0 0 .718-1.125c-.083-.52-.58-.866-1.076-.75ZM12.921 16.632c-1.186.144-.993 2.02.22 1.876.497-.058.856-.549.8-1.04-.082-.519-.524-.922-1.02-.836ZM25.968 17.238c-1.186.202-.937 2.049.249 1.875.496-.057.827-.548.772-1.038-.055-.52-.524-.924-1.02-.837ZM24.23 19.085c-1.075.23-.716 1.875.304 1.673.414-.086.717-.548.635-.98-.083-.462-.497-.78-.938-.693ZM12.287 14.324c-.442.086-.717.519-.635.98.11.462.524.75.966.664 1.02-.23.69-1.875-.331-1.644ZM21.141 17.844c-.414.086-.717.52-.634.981.082.462.496.78.937.664.442-.058.718-.49.635-.953a.836.836 0 0 0-.938-.692ZM17.28 17.325c-1.049.201-.718 1.846.303 1.615a.813.813 0 0 0 .634-.952c-.083-.462-.496-.779-.938-.663ZM9.915 17.527c-1.049.23-.718 1.846.303 1.644.414-.086.69-.52.607-.98-.083-.434-.497-.751-.91-.664ZM7.349 19.72c-1.076.23-.717 1.846.303 1.615.414-.086.69-.519.607-.952-.055-.433-.496-.75-.91-.663ZM15.79 7.543c-.442.086-.718.52-.607.98a.81.81 0 0 0 .938.636.821.821 0 0 0 .579-.981.762.762 0 0 0-.91-.635ZM15.348 4.138c-1.02.115-.855 1.731.166 1.616.441-.058.745-.49.69-.924-.056-.432-.442-.75-.856-.692ZM17.307 11.323c-.414.057-.717.461-.634.923.055.433.469.75.882.664.442-.058.718-.49.662-.924-.082-.432-.469-.75-.91-.663ZM17.059 5.263c-.91.202-.607 1.616.303 1.414a.731.731 0 0 0 .524-.865c-.083-.376-.441-.635-.827-.549ZM9.887 15.507c-.883.23-.607 1.616.276 1.414.386-.087.607-.433.524-.837-.055-.375-.441-.664-.8-.577ZM19.403 19.113c-.91.231-.579 1.588.276 1.386.386-.058.607-.433.552-.837-.083-.375-.47-.635-.828-.549ZM17.61 8.668c-.938.26-.579 1.587.276 1.385.359-.086.58-.461.497-.837-.055-.346-.442-.634-.773-.548ZM7.349 17.7c-.359.057-.607.433-.552.808.055.404.386.634.773.577.358-.03.606-.433.551-.808a.686.686 0 0 0-.772-.577ZM22.493 20.354c-.331.087-.552.462-.469.808a.6.6 0 0 0 .745.49c.827-.172.524-1.47-.276-1.298ZM20.92 20.99c-.772.086-.606 1.298.138 1.182.745-.115.607-1.27-.138-1.183ZM7.68 16.055c-.745.202-.469 1.327.248 1.183a.64.64 0 0 0 .442-.721.561.561 0 0 0-.69-.462ZM18.383 6.59c-.772.231-.441 1.357.248 1.184a.64.64 0 0 0 .442-.722c-.083-.317-.387-.548-.69-.461Z" fill="#fff"/></svg>